<?xml version="1.0" encoding="utf-8"?>
<!-- Generator: Adobe Illustrator 24.3.0, SVG Export Plug-In . SVG Version: 6.00 Build 0)  -->
<svg version="1.1" xmlns="http://www.w3.org/2000/svg" xmlns:xlink="http://www.w3.org/1999/xlink" x="0px" y="0px" width="909.8px"
	 height="1302.5px" viewBox="0 0 909.8 1302.5" style="enable-background:new 0 0 909.8 1302.5;" xml:space="preserve">
<style type="text/css">
	.st0{display:none;}
	.st1{display:inline;}
	.st2{fill:#FDE18D;}
	.st3{fill:#FFF4D7;}
	.st4{fill:#F5861F;}
	.st5{fill:#482C00;}
	.st6{fill:#FFFFFF;}
	.st7{fill:none;stroke:#000000;stroke-miterlimit:10;}
</style>
<g id="sketch" class="st0">
	<g class="st1">
		<defs>
			<rect id="SVGID_1_" width="909.8" height="1302.5"/>
		</defs>
		<clipPath id="SVGID_2_">
			<use xlink:href="#SVGID_1_"  style="overflow:visible;"/>
		</clipPath>
		<g style="clip-path:url(#SVGID_2_);">
			
				<image style="overflow:visible;" width="1668" height="2388" xlink:href="583BE2281B1559F3.jpg"  transform="matrix(0.5455 0 0 0.5455 0 0)">
			</image>
		</g>
	</g>
</g>
<g id="Layer_1">
	<g id="illustration">
		<path class="st2" d="M399.4,529.3c-14.6-1-58.5-4.1-72.8-4.1c-6.1,0-52.5,7.5-54.1,8.4c-1.7,0.8-8.7,3.1-8.7,3.1
			s-14.2-11.7-24-5.7c0,0-8.1,8,0,15.5c0,0-7.5,4.2-6.7,6.7c0,0,0,8.4,8.7,6.1c0,0-7,6.4-6.1,8.4c0.8,2-2,10.9,10.6,9.2
			c0,0,15.3,0.6,17.6-2c2.2-2.5,2.2-5.9,2.2-5.9s49.6,3.3,52.6,0.3c0,0,31.4-0.3,33.1-0.6c1.7-0.3,25.4,2.8,27.9,4.7
			s6.4,6.1,6.4,6.1s-20.9,97.4,23.2,113.9c0,0,33.5,14.8,45.8,13.7c0,0,38.2,3.1,62.2-19.5c0,0,31.5-37.1,16.7-104.1
			c0,0,0-7.3,6.1-8.4s55.5,5,65,2.2c0,0,38.5,9.8,39.3,9.2c0.8-0.6,11.2,6.1,14,5.9c2.8-0.3,16.5,1.4,14.2-4.7c0,0-1.7-5.6-4.2-5.9
			c0,0,18.1-6.4,4.4-16.7c0,0,10.1-1.4,9.8-10.6c0,0-2.8-11.7-20.7-9.2l-6.4,1.4c0,0-41.6-11.4-45.5-10.6c0,0-50.2-1.1-52.5-1.1
			c-1.4,0-19.3-1.1-33.4-2.2c0,0-36-21-46.4-21.8l-47.7,1.1C430.1,512.1,401.9,529.5,399.4,529.3z"/>
		<ellipse class="st3" cx="459.8" cy="619.3" rx="64.3" ry="78.1"/>
		<path class="st2" d="M411.2,692.5c0,0-5.7,34-1,42.5c0,0-14.2,16.3-2.9,23.8c0,0,2.9,3.3,6.6-1.5c0,0,5.6,8.5,14.2,0.3
			c0,0,7.3,8,15.9-0.1c0,0,6.1-7.4-1.1-22.4c0,0,9.6-27.6-0.6-30.8C439.1,703.2,427,681.4,411.2,692.5z"/>
		<path class="st2" d="M509.2,692.6c0,0,5.3,34.1,0.6,42.5c0,0,14.1,16.5,2.7,23.8c0,0-2.9,3.2-6.5-1.6c0,0-5.7,8.4-14.2,0.2
			c0,0-7.4,7.9-15.9-0.3c0,0-6-7.5,1.3-22.4c0,0-9.3-27.7,0.9-30.8C481.3,703,493.5,681.4,509.2,692.6z"/>
		<path class="st4" d="M296.3,713.9c0,0-11.2,23.4,13.1,25.6c0,0,13.3-3.8,16.6,7.7c0,0,7.1-7.2-9.5-24.6c0,0,1.9-13.6-5.7-15.8"/>
		<path class="st2" d="M310.7,706.9c0,0-3.8-6.5,3-5.7c0,0,23.4,13.9,25.9,13.9s25.3,5.7,38.4,1.4s31.3-12.3,31.3-12.3v-9.3
			l-4.4-1.8c0,0-22,23-38.9,15.4c0,0-23.7,1.6-44.9-14.2c0,0-26.1-9.5-24.8,19.6"/>
		<path class="st5" d="M244.2,534.6c0,0-8-2.7-11.5,0l-2.7,2.1c0,0,10.4,5.4,12.3,1.6C242.3,538.4,247.6,537,244.2,534.6z"/>
		<path class="st5" d="M240.8,549.7c0,0-8.3-1.5-11.4,1.7l-2.3,2.5c0,0,11.1,3.7,12.4-0.2C239.5,553.7,244.6,551.5,240.8,549.7z"/>
		<path class="st5" d="M241.5,567.6c0,0-8.4-0.8-11.2,2.6l-2.1,2.7c0,0,11.4,2.9,12.4-1.2C240.5,571.7,245.4,569.2,241.5,567.6z"/>
		<path class="st5" d="M673.3,555c0,0,8-2.7,11.5,0l2.7,2.1c0,0-10.4,5.4-12.3,1.6C675.1,558.7,669.8,557.4,673.3,555z"/>
		<path class="st5" d="M671.9,571.4c0,0,8.3-1.5,11.4,1.7l2.3,2.5c0,0-11.1,3.7-12.4-0.2C673.2,575.4,668.1,573.3,671.9,571.4z"/>
		<path class="st5" d="M669.4,586.2c0,0,8.3,1.6,10,5.6l1.3,3.2c0,0-11.7-0.4-11.5-4.6C669.2,590.4,665.2,586.6,669.4,586.2z"/>
		<path class="st5" d="M406.1,751.8c0,0-5.5,6.4-4.3,10.7l1,3.3c0,0,8.9-7.7,6.1-10.8C408.9,755,409.6,749.5,406.1,751.8z"/>
		<path class="st5" d="M418.6,755.6c0,0-2.3,8.2,0.6,11.5l2.3,2.6c0,0,4.8-10.7,1-12.4C422.4,757.3,420.8,752,418.6,755.6z"/>
		<path class="st5" d="M435.4,755.8c0,0-1.6,8.3,1.5,11.4l2.5,2.4c0,0,3.9-11,0-12.4C439.4,757.2,437.3,752,435.4,755.8z"/>
		<path class="st5" d="M512.7,751.8c0,0,5.3,6.6,4.1,10.8l-1.1,3.3c0,0-8.7-7.9-5.9-10.9C509.8,754.9,509.2,749.4,512.7,751.8z"/>
		<path class="st5" d="M501.7,755.6c0,0,2.3,8.2-0.6,11.5l-2.3,2.6c0,0-4.8-10.7-1-12.4C497.9,757.3,499.5,752,501.7,755.6z"/>
		<path class="st5" d="M483.8,755.8c0,0,1.6,8.3-1.5,11.4l-2.5,2.4c0,0-3.9-11,0-12.4C479.8,757.2,481.9,752,483.8,755.8z"/>
		<path class="st4" d="M436.5,308.9c0,0-38.4-19.3-46.9-13.8c0,0-26,17.1-27.3,23.8c0,0-3.2,8.9,8,18.2c0,0-11.2-14.5-22,5.2
			l-11.5,5.2h6.3c0,0-23.1,18.4-19.7,30.8c0,0,4.8,2.7,3,4.9c-1.9,2.2-10.4,19-1.1,22c0,0-7.4,24.2,6,32.8c0,0-0.4,23.6,1.5,23.3
			c1.9-0.3,1.9-0.3,1.9-0.3s1.9,19.7,20.1,23.6c0,0,17.8,25.5,40.7,20.7c0,0,7.1,16,21.4,10.8c0,0,18.3,22.9,39.5,1
			c0,0,13.9,14.2,16,11.2s9.5-6,14.8-4.8c0,0,13.9,9.3,20.9-5.6c0,0,19.1,10.8,27.6-24.9c0,0,22.2,2.6,20-13c0,0,24.2-9.3,13.8-26.6
			c0,0,19-10.9,9.7-23c0,0,13.4-17.7,0-29.4c0,0,13.8-31.4-4.1-42.6c0,0,7.1-21.2-11.2-27.5c0,0,9.3-6.3,8.9-7.8
			c-0.4-1.5-8.2-0.7-8.2-0.7s19.3-44.7-39.1-25.7c0,0-6.7-7.5-17.5-4.7l4.4-5.3c0,0-14.5-4.1-36.1,7.4c0,0-8.6-4.5-14.1,0
			l-13.5,15.3C448.6,309.3,442,311.5,436.5,308.9z"/>
		<path class="st2" d="M414.2,362.5l-6.7,6.1c0,0-16.7-10.6-30.1,6.1c0,0-8.4,21.2,15.6,26.2c0,0-13.4,82,50.8,83.7h19.5
			c0,0,55.8,1.1,50.8-82c0,0,21.2-12.3,12.8-27.3c0,0-10.6-21.8-22.9-6.7c0,0-5.6,6.7-12.3-10.6c0,0-19,5.6-32.4-7.3
			C459.4,350.8,441,375.9,414.2,362.5z"/>
		<ellipse cx="421.8" cy="394.9" rx="14.8" ry="16.5"/>
		<ellipse cx="487.1" cy="394.9" rx="14.8" ry="16.5"/>
		<circle class="st6" cx="425.2" cy="401.4" r="6.6"/>
		<circle class="st6" cx="487.1" cy="401.4" r="6.6"/>
		<path class="st5" d="M452.4,417.7h-20.6c0,0-5-1.4-2.5,6.7c0,0,11.7,24.8,20.1,24c0,0,14.8,2,27.9-22.6c0,0,6.2-7.8-5-10.3
			L452.4,417.7z"/>
		<path class="st7" d="M448.6,451.2v18.1c0,0,12.3,8.7,30.4-9.1"/>
		<path class="st7" d="M411.9,422.8c0,0-14.5-9.8-49.7,0"/>
		<path class="st7" d="M418.6,432c0,0-20.9-8.4-46.6,13.7"/>
		<path class="st7" d="M416.7,443.4c0,0-23.7,6.7-34.6,20.1"/>
		<path class="st7" d="M485.1,420.6c0,0,20.7-12.1,50.5,2.2"/>
		<path class="st7" d="M483.1,432c0,0,39.6,6.7,45.8,21.5"/>
		<path class="st7" d="M480.5,445.6c0,0,24.9,8.4,31.9,24.3"/>
		<path class="st7" d="M407.5,368.6c0,0-11.2,17.9-14.5,32.4"/>
		<path class="st7" d="M501.8,371.7c0,0,9.3,16.9,12.2,31"/>
		<path class="st7" d="M419.5,459.3c0,0,16.7,17.7,29.2,10"/>
	</g>
	<g id="skeleton">
		<g id="skeleton_1_">
			<circle id="rightShoulder" cx="398.6" cy="563.4" r="8.2"/>
			<circle id="rightElbow" cx="315.8" cy="548.6" r="8.2"/>
			<circle id="rightWrist" cx="249.5" cy="550.7" r="8.2"/>
			<circle id="rightHip" cx="415" cy="747" r="8.2"/>
			<circle id="rightKnee" cx="401.9" cy="930.4" r="8.2"/>
			<circle id="rightAnkle" cx="401.9" cy="1138.4" r="8.2"/>
			<circle id="leftShoulder" cx="507.6" cy="565.1" r="8.2"/>
			<circle id="leftElbow" cx="591.6" cy="547.5" r="8.2"/>
			<circle id="leftWrist" cx="667.5" cy="563.4" r="8.2"/>
			<circle id="leftHip" cx="500.7" cy="747.4" r="8.2"/>
			<circle id="leftKnee" cx="511.9" cy="930.4" r="8.2"/>
			<circle id="leftAnkle" cx="511.9" cy="1138.4" r="8.2"/>
			<polygon class="st7" points="398.6,563.3 415.6,746.2 500.1,748.5 507.6,563.4 			"/>
			<polyline class="st7" points="398.6,563.3 315.5,548.8 249.5,550.2 			"/>
			<polyline class="st7" points="507.6,563.4 591.8,547.7 667.5,563.3 			"/>
			<polyline class="st7" points="415.6,746.2 401.8,930.7 401.8,1138.7 			"/>
			<polyline class="st7" points="500.1,748.5 508.6,881.8 511.8,1138.7 			"/>
			<circle id="rightEye0" cx="421" cy="430.3" r="0.8"/>
			<circle id="rightBrow1" cx="418.8" cy="418.4" r="0.8"/>
			<circle id="rightBrow4" cx="442.1" cy="421.4" r="0.8"/>
			<circle id="nose1" cx="450" cy="431.3" r="0.8"/>
			<circle id="rightBrow3" cx="432.3" cy="417.4" r="0.8"/>
			<circle id="rightEye1" cx="426.2" cy="426.6" r="0.8"/>
			<circle id="rightBrow0" cx="414.8" cy="422.1" r="0.8"/>
			<circle id="rightBrow2" cx="425" cy="417.4" r="0.8"/>
			<circle id="rightEye5" cx="426.2" cy="432.6" r="0.8"/>
			<circle id="rightEye2" cx="432.5" cy="426.6" r="0.8"/>
			<circle id="rightEye3" cx="437.7" cy="430.8" r="0.8"/>
			<circle id="nose0" cx="450" cy="425.5" r="0.8"/>
			<circle id="nose3" cx="450" cy="443.9" r="0.8"/>
			<circle id="rightNose0" cx="439.3" cy="448.4" r="0.8"/>
			<circle id="rightMouthCorner" cx="433.3" cy="470.5" r="0.8"/>
			<circle id="rightNose1" cx="444.5" cy="448.4" r="0.8"/>
			<circle id="rightUpperLipTop0" cx="440.2" cy="467.1" r="0.8"/>
			<circle id="nose2" cx="450" cy="436.8" r="0.8"/>
			<circle id="nose4" cx="450" cy="449.2" r="0.8"/>
			<circle id="upperLipTopMid" cx="450.8" cy="466.9" r="0.8"/>
			<circle id="rightUpperLipTop1" cx="446.7" cy="466" r="0.8"/>
			<path id="rightMiddleLip" d="M436.9,470c0.4,0,0.8,0.4,0.8,0.8s-0.4,0.8-0.8,0.8s-0.8-0.4-0.8-0.8
				C436.1,470.4,436.5,470,436.9,470z"/>
			<circle id="lowerLipBottomMid" cx="450.8" cy="480.1" r="0.8"/>
			<circle id="upperLipBottomMid" cx="450.8" cy="470.5" r="0.8"/>
			<circle id="lowerLipTopMid" cx="450.8" cy="473.6" r="0.8"/>
			<circle id="rightUpperLipBottom1" cx="446.9" cy="470" r="0.8"/>
			<circle id="rightLowerLipTop0" cx="446.9" cy="472.9" r="0.8"/>
			<circle id="rightLowerLipBottom1" cx="446.7" cy="479.6" r="0.8"/>
			<circle id="rightLowerLipBottom0" cx="439.7" cy="476.8" r="0.8"/>
			<circle id="rightEye4" cx="432.5" cy="431.8" r="0.8"/>
			<circle id="jawMid" cx="450.8" cy="505.9" r="0.8"/>
			<circle id="rightJaw7" cx="435.8" cy="502.7" r="0.8"/>
			<circle id="rightJaw6" cx="425.8" cy="496" r="0.8"/>
			<circle id="rightJaw5" cx="414.2" cy="483.5" r="0.8"/>
			<circle id="rightJaw4" cx="407.4" cy="463.5" r="0.8"/>
			<circle id="rightJaw3" cx="406.6" cy="441.8" r="0.8"/>
			<circle id="rightJaw2" cx="406.6" cy="432.3" r="0.8"/>
			<circle id="rightJaw1" cx="407.4" cy="420.6" r="0.8"/>
			<circle id="rightJaw0" cx="409.9" cy="411.3" r="0.8"/>
			<circle id="topMid" cx="451" cy="385.2" r="0.8"/>
			<circle id="leftTop0" cx="470.7" cy="387.7" r="0.8"/>
			<circle id="leftTop1" cx="483.3" cy="397.2" r="0.8"/>
			<circle id="leftEye0" cx="480.6" cy="430.3" r="0.8"/>
			<circle id="leftBrow1" cx="482.5" cy="418.8" r="0.8"/>
			<circle id="leftBrow4" cx="458.9" cy="420.9" r="0.8"/>
			<circle id="leftBrow3" cx="468.9" cy="417.7" r="0.8"/>
			<circle id="leftEye1" cx="475.4" cy="426.6" r="0.8"/>
			<circle id="leftBrow0" cx="486.5" cy="421.7" r="0.8"/>
			<circle id="leftBrow2" cx="476.2" cy="417.3" r="0.8"/>
			<circle id="leftEye5" cx="475.4" cy="432.6" r="0.8"/>
			<circle id="leftEye2" cx="469.1" cy="426.6" r="0.8"/>
			<circle id="leftEye3" cx="463.9" cy="430.8" r="0.8"/>
			<circle id="leftNose0" cx="460.4" cy="448.4" r="0.8"/>
			<circle id="leftMouthCorner" cx="468.3" cy="470.5" r="0.8"/>
			<circle id="leftNose1" cx="455.6" cy="448.4" r="0.8"/>
			<circle id="leftUpperLipTop0" cx="461.4" cy="467.1" r="0.8"/>
			<circle id="leftUpperLipTop1" cx="455" cy="466" r="0.8"/>
			<path id="leftMiddleLip" d="M464.7,470c0.4,0,0.8,0.4,0.8,0.8s-0.4,0.8-0.8,0.8s-0.8-0.4-0.8-0.8
				C463.9,470.4,464.3,470,464.7,470z"/>
			<circle id="leftUpperLipBottom1" cx="454.8" cy="470" r="0.8"/>
			<circle id="leftLowerLipTop0" cx="454.8" cy="472.9" r="0.8"/>
			<circle id="leftLowerLipBottom1" cx="455" cy="479.6" r="0.8"/>
			<circle id="leftLowerLipBottom0" cx="461.9" cy="476.8" r="0.8"/>
			<circle id="leftEye4" cx="469.1" cy="431.8" r="0.8"/>
			<circle id="leftJaw7" cx="465.6" cy="503.1" r="0.8"/>
			<circle id="leftJaw6" cx="475.6" cy="496.4" r="0.8"/>
			<circle id="leftJaw5" cx="487.2" cy="483.8" r="0.8"/>
			<circle id="leftJaw4" cx="494" cy="463.8" r="0.8"/>
			<circle id="leftJaw3" cx="494.8" cy="442.2" r="0.8"/>
			<circle id="leftJaw2" cx="494.8" cy="432.6" r="0.8"/>
			<circle id="leftJaw1" cx="494" cy="420.9" r="0.8"/>
			<circle id="leftJaw0" cx="491.5" cy="411.7" r="0.8"/>
			<polyline class="st7" points="450.8,385.2 431,387.7 418.5,397.2 409.9,411.3 407.4,420.6 406.6,432.3 406.6,441.8 407.4,463.5 
				414.2,483.5 425.8,496 435.8,502.7 450.8,505.9 465.6,503.1 475.6,496.4 487.2,483.8 494,463.8 494.8,442.2 494.8,432.6 
				494,420.9 491.5,411.7 483.3,397.2 470.7,387.7 450.8,385.2 			"/>
			<polyline class="st7" points="414.8,422.1 418.8,418.4 425,417.4 432.3,417.4 442.1,421.4 			"/>
			<polygon class="st7" points="421,430.3 426.2,426.6 432.5,426.6 437.7,430.8 432.5,431.8 426.2,432.6 			"/>
			<polyline class="st7" points="439.3,448.4 444.5,448.4 450,449.2 450,443.9 450,436.8 450,431.3 450,425.5 			"/>
			<polyline class="st7" points="486.3,421.7 482.3,418.8 476,417.3 468.7,417.7 458.7,420.9 			"/>
			<polygon class="st7" points="480.4,430.3 475.1,426.6 468.8,426.6 463.7,430.8 468.8,431.8 475.1,432.6 			"/>
			<polyline class="st7" points="460.4,448.4 455.4,448.4 450,449.2 			"/>
			<polygon class="st7" points="433.3,470.5 440.2,467.1 446.7,466 450.8,466.9 455,466 461.4,467.1 468.3,470.5 461.9,476.8 
				454.8,479.6 450.8,480.1 446.7,479.6 439.7,476.8 			"/>
			<polyline class="st7" points="433.3,470.5 436.9,470.8 446.9,470 450.8,470.5 454.8,470 464.7,470.8 468.3,470.5 			"/>
			<polyline class="st7" points="433.3,470.5 436.9,470.8 446.9,472.9 450.8,473.7 454.8,472.9 464.7,470.8 468.3,470.5 			"/>
			<circle id="rightTop0" cx="431.1" cy="387.7" r="0.8"/>
			<circle id="rightTop1" cx="418.5" cy="397.2" r="0.8"/>
		</g>
	</g>
</g>
</svg>
