<?xml version="1.0" encoding="utf-8"?>
<!-- Generator: Adobe Illustrator 23.0.3, SVG Export Plug-In . SVG Version: 6.00 Build 0)  -->
<svg version="1.1" id="Layer_1" xmlns="http://www.w3.org/2000/svg" xmlns:xlink="http://www.w3.org/1999/xlink" x="0px" y="0px"
	 width="1200px" height="1334.2px" viewBox="0 0 1200 1334.2" style="enable-background:new 0 0 1200 1334.2;" xml:space="preserve"
	>
<style type="text/css">
	.st0{fill:#FFB664;}
	.st1{fill:#AA2B65;}
	.st2{fill:#EDC443;}
	.st3{fill:#E8E7DA;}
	.st4{fill:#262422;}
	.st5{fill:#7F5732;}
	.st6{fill:#F22076;}
	.st7{fill:#66462C;}
	.st8{fill:#35312D;}
	.st9{fill:#F240E1;}
	.st10{fill:#C1C1BD;}
	.st11{fill:#3F3F3D;}
	.st12{fill:#B27538;}
	.st13{fill:#EAD6C3;}
	.st14{fill:#C1C1C1;}
	.st15{fill:#F7D986;}
	.st16{fill:#A3A3A3;}
	.st17{fill:#CEA73C;}
	.st18{fill:#FFFFFF;}
	.st19{fill:#7C4C22;}
	.st20{fill:#3A2525;}
	.st21{fill:#383734;}
	.st22{fill:none;stroke:#000000;stroke-miterlimit:10;}
</style>
<g id="illustration">
	<path class="st0" d="M629.6,510.8c0,0,11.9-53.4,28.7-59v-30.2c0,0-13,6.3-14.3,6.3s-31.5,2.6-31.5,2.6l-19.3-7.4l-2.9,25.7l2,5.6
		C592.2,454.3,626.6,458.3,629.6,510.8z"/>
	<path class="st1" d="M931.9,436.1c0,0,6.8,21.2,6.1,28.9c0,0,1.1,56.8-8.8,62.5l-3.4-1.3l-4.5-77.5c0,0,8.1-11.6,8.4-11.7
		S931.9,436.1,931.9,436.1z"/>
	<path class="st2" d="M929,461.7c0,0,24,4.7,22.3,23.7L972,487l8.7-4.6c0,0-5-33.2,21.5-36.1c0,0,36-3.4,37.4,30.3
		c0,0,2.2,26-22,29.3l-8.9-9.8c0,0,18.3-6.7,13.8-19.1c0,0-4.2-19.8-18.1-7.3c0,0-5.7,8.7-6.6,11.9c0,0-4.5,14-16.2,18.4l-32.2-3.1
		c0,0-16.6,21.2-23.7,10.2l-0.9-24.6l2.1-20.8L929,461.7z"/>
	<path class="st1" d="M315.6,436.7c0,0-7.9,18.9-7.6,24.7c0.3,5.6-1.2,48,9.8,62.4c0.3,0.3,0.5,0.7,0.8,1c11.9,13.3,13.6-70.9-3-89
		L315.6,436.7L315.6,436.7z"/>
	<path class="st0" d="M290.1,460.1v-5.3l-2-3l-5.9,7.9c0,0-3.2,9.6-4.4,9.6s-10-3.7-10-3.7l-2.6,5.6v4.2c0,0,9.7,3.1,1.9,12
		s-1.9-0.3-1.9-0.3s7.1,8.4,5.6,11.6s-2.2,7.2-2.2,7.2s7.4,3,4.8,5.2c-2.6,2.2,2.6-2.2,2.6-2.2l8.6-2.2l11.5-4.5l4.7,0.3l24.4,5.8
		c6.8-15.3,17.8-44.2,6.7-50.7c-6-3.5-10.8,6.4-13.9,4.4"/>
	<path class="st0" d="M260.2,452.5c0,0-42.5,13.8-44,11.9s-8.6,0.2-8.6,0.2l-4.1,10.7v6.4l8.2,4.8c0,0-2.6,9.9,0.4,11.6
		s5.2,5.4,5.2,5.4l1.9,7.8c0,0,5.6,8.6,8.6,8.6s12.3,2.6,12.3,2.6l14.9,3h9.4c0,0,6.6-1.5,8.5-8.2s-3-11.9-3-11.9l2.2-7.2l-7.8-9.1
		l7.1-8.2l-9-5.9l5.9-8.1l10.8,2.1c0,0,13-11.5,9.7-11.9s6.7-10.8-16.4-21.2L260.2,452.5z"/>
	<path class="st3" d="M575.7,447.9l27.3,10.6c0,0,23.7,7.5,26.2,46.3s2,25.1,2,25.1s-6.7-67,34-79.3L703.5,590
		c0,0-8.9,72.3-8.1,76.7c0.8,4.5-2,27.6-2,27.6L611.1,706c0,0-38.3-4.7-39.1-5.8s9.3-208.5,8.4-210.4
		C579.6,487.8,575.7,447.9,575.7,447.9z"/>
	<path class="st4" d="M582.4,692.9c0,0,3.9,1.4,33.2,0.2c0,0,45.1,1.9,50.8-0.2h4.6l14.6-4.6l0.5,24.5l-5.7,5c0,0-11.8,1.4-22.4,2.2
		l-42.3,1.3c0,0-6,2.3-6.7,2.3s-33.5-5.3-33.5-5.3L582.4,692.9z"/>
	<path class="st5" d="M585.9,709.4l1.7-19.1h10v30.9l11.5,1.9l10-2.6v5.2h38.7V720l13-1.9v-26.4l8.6-1.5l1.3,24.1l40,77.4v34.6
		l-6,38.3c0,0,10.4,23.4,8.2,40.6h-17.5L691,902l-29-0.4l-13.8-1.1c0,0,9.3-30.1,8.2-32s-1.8-4.5-1.8-4.5s-20.5-45-20.5-51.3
		c0,0-13,38-25.3,48.4l-4.5,7.4l-1.5,7.1c0,0,6.7,22.3,6.7,24.2s0,1.9,0,1.9l-15.3-0.7c0,0-8.9-3.3-12.7-2.6
		c-3.7,0.7-12.7,0.4-12.7,0.4l-10,1.9l-6.3,1.5l-9.7-3.7l-3-1.9c0,0,4.1-8.6,5.2-9.7c1.1-1.1-0.4-16.4,0.7-16.7
		c1.1-0.4-14.9-29-7.8-65.9l22-79.6l19.3-12.3L585.9,709.4z"/>
	<path class="st6" d="M315.6,437.6c0,0,22,36.1,3,85.2c0,0,8.6,4.5,26.4,0c0,0,34.2-1.9,38-13.4l7.8-4.8l14.9-1.5
		c0,0,17.5-5.6,21.2-7.4c0,0,27.9,5.6,48,10c0,0,57.7-11.2,69.2,73.7c0,0,3.3,60.3-11.9,96.7L508,723l-3.3,5.2l-6.3,3.3l-4.5,11.2
		c0,0-7.1,3-11.9,16.4c0,0-3,8.6,3,11.9c0,0,38,17.1,53.2,33.1c0,0,26.5,19.5,30.1,32.4c0.2,0.8,0.4,1.5,0.4,2.2
		c0.7,12.7,6.7-14.1,6-24.9l6-22c0,0,8.6-32.7,9.3-35.7s1.5-32-10.4-74.8c0,0-6-53.6-4.1-63.3l4.8-53.2l10-76.7l7.5-50.6l-2.2-1.5
		l-1.1-9.7l-11.2-6l-10.8-7.8c0,0-1.1-4.1-2.2-3.7s-7.8,0.7-9.3,1.9c-1.5,1.1-1.1,7.8-1.1,7.8l-12.7,7.1c0,0-8.9,6.3-9.7,9.3
		c0,0-30.5,0.7-31.6,1.1s-11.2,7-19.7,8.2c-2.6,0.4-21.6,13.4-49.5,15.6c0,0-18.2,5.2-42-3.7l-11.2-7.1l-5.2-0.4l-5.2-13.4
		c0,0-41.7-6.3-57.3,0.4v2H315.6z"/>
	<path class="st6" d="M932.5,436.1c0,0-0.7,0-1.8-0.1c-1.9-0.1-5.2-0.2-9.4-0.4c-15.1-0.5-41.1-0.8-48.4,2.3c0,0-1.1,10-2.2,10
		s-11.2,3.3-12.3,3.7c-1.1,0.4-1.9,3.3-3,3.3s-13.8,6.3-35.7,6l-43.2-7.1l-19-11.9l-24.9-6.7H711l-16-12.3l-13.8-8.9h-3.7l-12.3,2.6
		l-8.2,8.6l3,8.9l-7.8,7.1l6,14.5c0,0,42.4,86,34.2,171.2c0,0-6.7,77.4-14.1,95.3c0,0-11.5,44.7,20.5,56.6l27.9,39.4
		c0,0,13.4,26,13,28.7l0.7-45.8l12.7-28.7c0,0,25.7-29.8,1.5-55.8l-25.3-52.8l-11.9-33.3l-1.9-25.9l0.4-55.4l5.2-18.6
		c0,0,6-10.4,6.7-16.7l7.4-4.1l23.8-3.3l11.5-5.2l18.6-0.4l20.5,3.3l13.8,0.4l10.4,3.7l20.8,1.5l13.4,6.7l2.6,2.6l21.6,1.5l13,3
		l18.2,2.6h2.2l-0.4-23.1C925.4,503.1,924.7,443.9,932.5,436.1z"/>
	<path class="st7" d="M540,805.5c0,0,27.3,31.7,25.1,34.2l0.1,5l2.7-2.7c0,0,3-4.1-5.3-15.3L540,805.5z"/>
	<path class="st7" d="M588.2,770c0,0,0.2,34.1-12,50.2l-1.7-6.4c0,0,9.1-31.9,11.5-42.5C586.6,769.3,588.5,770.3,588.2,770z"/>
	<path class="st7" d="M582.2,870.9l-6.7-3.3h-6.6l-5.6-3.5l-4.3-2.6c0,0,7.6,11.4,8.6,11s6.6,3.3,6,2.2s4.2-2.2,4.2-2.2
		s4.5,1.5,4.5,0C582.2,870.9,582.2,870.9,582.2,870.9z"/>
	<path class="st7" d="M673.7,854.9c0,0,3.2,7.6,4.7,8.4c1.5,0.7,2.8,2,2.8,2s8.9,0.2,9.5,0s1.3,3.9,0,4.7c-1.3,0.7-5.8,3.7-5.8,3.7
		s-8,1.7-9.5,1.1c-1.5-0.6-2.4-0.8-2.4-0.8s9.5-1.3,9.2-3.5s-4-2.4-4-2.4s-4.5,1.5-5.2,1.5S669.4,859.9,673.7,854.9z"/>
	<path class="st7" d="M718.9,809.9c0,0-2.2,30.8-3.2,32.2c-0.9,1.3-4.1,12.9-4.1,12.9l-4.5,13.2l-1.1,0.9h3.9l0.2,4.1
		c0,0-0.2,17.1,0.4,17.7c0.6,0.6,0.6,0.6,0.6,0.6l2.8-6.9c0,0,3.5,7.1,3.5,7.8s0,7.4,0,7.4l0.2,5.6h3.7c0,0,6.8-3.1-5.1-37.2
		c0,0-0.4-21.3,0.5-21.2s4.1-33.1,4.1-33.1v-3l-2-2L718.9,809.9z"/>
	<polygon class="st7" points="546.7,870.9 548.5,888.7 547.6,900 540,896.4 545.5,885.5 545.9,870 	"/>
	<path class="st7" d="M546.1,842c0,0,0.7,13.8,0.7,15s1.7,12.9,1.7,12.9l-2.4-1.8l-5.5-14.3l-2.6-11.1l-1.3-9.8l4,10.2l1.9,5
		C542.6,848.2,547.6,843.7,546.1,842z"/>
	<path class="st7" d="M601.7,874.8c0,0-5.6,0.3-5.6,0.9c0,0.6,1.5,9.3,1.5,9.3l1.3,10.6l-1.3,5.4l11.9,0.6l-0.7-5.1L601.7,874.8z"/>
	<path class="st7" d="M639.1,738.8l-5.4,5.8c0,0,6.3,33.1,1.1,48l-3.3,13.2c0,0,1.5,4.5,1.3,5s-4.8,6.3-5.2,7.3
		c-0.4,0.9-8.2,18.6-8.2,18.6l-5,9.1c0,0,2,0,2.8-1.3c0.7-1.3,4.9-6.1,4.9-6.1l11.1-23.2l0.9-2.5l13.2,33.1l5,12.5
		c0,0,4.7-2.8,3.9-3.3c-0.7-0.6-7.8-22.1-10.2-26s-5.6-13.6-6.3-14.1c-0.7-0.6-3.5-6.9-3.5-6.9s3.2-12.3,4.3-14.9
		c1.1-2.6,1.3-6.7,1.3-6.7S640.4,740.3,639.1,738.8z"/>
	<path class="st7" d="M695.4,779.2l3.4-0.4l22,32l-2.3,4.7C718.5,815.5,699,779.7,695.4,779.2z"/>
	<path class="st7" d="M680.8,714.4c0,0-7.6,21.1-5.8,27.7l-0.3,7.3c0,0-3.3-5.3-3.3-6.1s4.7-27.3,4.7-27.3l3.1-3.1L680.8,714.4z"/>
	<path class="st8" d="M616.2,900c0,0-13.9,2.1-16.2,1.6s-25.4-8.6-47.4,0.4l-15.9-4.2L531,896l-3,6c0,0,3,28.3,1.9,29.4
		s-1.9,3.3-1.9,3.3h8.2l3.7,13.4c0,0,13,86.3,16,89.7c0,0-7.1,3-7.4,14.9c0,0-20.1,17.5-20.5,20.8c0,0-9.7,21.6,11.9,24.9
		c0,0,13.6,5.6,30.6,1.5c0,0,22.2,0,27.1-1.5l8.6-4.5c0,0,12.2-16.4-6.2-30.1c0,0-11.1-14.5-11.7-16l-2.2-20.1l6.7-33.1
		c0,0,14.1-24.2,14.9-28.7l3.7-24.6l-1.9-4.1l6.7,0.4l1.9-37.7L616.2,900L616.2,900z"/>
	<path class="st8" d="M709.1,984.8l-4.7,42.5l-1.9,18.6c0,0,3.6,9.7,5.5,11.9c1.9,2.2-2,0-2,0s10.2,8.9,14.7,15.6
		c0,0,8.2,5.2,7.8,10.4c0,0,6.3,13.8-10.4,17.5c0,0-22,4.8-26.8,3.3c0,0-18.4-3.7-20-3.3c-1.6,0.4-16.8,0-16.8,0
		s-16.4-10.8-4.8-30.2l13-13.8l5.2-10.8c0,0-0.4-22.3-0.4-23.4s-7.8-29-9.7-31.6s-14.5-35.7-5.6-52.1l-9.7-3V900h3.7l15.6,1.6
		l29,0.4l17.1,3.3h13.3h12.5l-2.6,32l-1.1,3.3h-9.3c0,0-1.9,27.9-9.3,39.1c-0.6,0.8-1,1.5-1.5,2.1L709.1,984.8z"/>
	<path class="st4" d="M588.3,1075c0,0-14.1,2.4-17.1,2c-2.9-0.5-9.6-1.7-13.9-9.4l6.1,4.7l1.9-0.7l2.9-1.1c0,0,1.9,5.3,6.6,3.5
		c4.7-1.9,7.5-3.5,7.5-3.5S591.2,1072,588.3,1075z"/>
	<path class="st4" d="M552,1056c0,0-0.7,0.4-1.8,1c-4.1,2.4-14,8.8-14.3,15.3c-0.3,8.1,0.7,14.6,0.7,14.6s4.2,5.6,7.2,6.7
		c3.1,1.1,4.5,4.8,4.5,4.8l-12.6-0.9c0,0-17.5-6.8-6.4-27.1l15.2-14.4c0,0,3.5,0.1,3.8-3.3s3.3-14.1,7.4-14.9c0,0,2.2,1.8,4.1,1.8
		c1.9,0-2.2,0-1.1,2.4S552,1056,552,1056z"/>
	<path class="st4" d="M588.3,1047.8l-3.4,3.5l4.6,5l5.7,6.8l3.3,4.9l4.4,2.3c0,0-2.3,13-1.4,15c0.9,2-5.4,8.9-7.6,9.7
		c-2.2,0.7-2.9,3.3-2.9,3.3s9.6,0.4,15.2-4.5c5.6-4.8,3-0.4,3-0.4s2.5-13.3-0.1-18.2l-9.1-11.5c0,0-0.7-8.4-2.4-9.8
		c-1.8-1.4-6.6-7-6.6-7L588.3,1047.8z"/>
	<path class="st4" d="M562.1,932.1l-27.1-1.7c0,0-3.5-12.9-3.3-14s-0.6-11.1-0.6-11.1l0.4-3.7L531,896l-3,6l-1,9.7l3.1,17l-2.1,6
		h6.7L562.1,932.1z"/>
	<path class="st4" d="M581.4,932.1l18.6,2h9.2l1.1-3.7l1.5-8l5.2-5.2c0,0-0.3,11-0.3,11.4s-1.4,6-1.4,6l1,3l-6.7,2.2l-3.2,2.3
		l-17.5-7.4l-9.8-2.6H581.4z"/>
	<path class="st4" d="M584.1,904.7c1.3-0.2,8.1-1.7,6.9-1.7s-9.6-1.5-9.6-1.5s-13-1.1-15.9,0s-5.9,2.6-8.3,3.2
		c-2.4,0.6-6.9-3.7-6.9-3.7l11.7-2l19.6-0.9l12.7,2.6l3.3,0.2l2.4,0.6l16.2-1.6v5.3c0,0-4.8,0-7.1,0s-7.6,0-9.2-0.6
		c-1.6-0.6-4.4-2.4-8.2,0.6s-6.9,1.9-6.9,1.9L584.1,904.7z"/>
	<path class="st4" d="M544,973.5c0,0,4.1,9,4.5,11.1c0.4,2,2.6,16.7,2.6,16.7s1.4,16.2,0.9,16.7C551.5,1018.6,544.4,975.6,544,973.5
		z"/>
	<path class="st4" d="M593.7,991.6l-4.9,1.5c0,0-5.2,25.7-4.8,26.4s2.4,11.7,2.4,11.7l7.3-38.2V991.6z"/>
	<path class="st4" d="M672.8,938.8l-4.5-4.1l-12-2.6c0,0-3.2-5.3-4-5.9c-0.7-0.6-4.1-4.2-4.1-4.2l-1.4-9.5v-3.9l5.5-3.3l8.5-2.5
		l-1-1.4l-17.2-1.4v13.1v19.8v1.8l7.3,4.1l-0.6,12.3l0.4,11.9l2.6,13c0,0,2.3-8.2,2.3-9.3s-3-11.2-2.3-12s0-10.3,0-10.3l2.6-5
		c0,0,3.1,0.8,2.8,1.7c-0.3,0.8,0,3.9,0,5s2.8,3.1,2.8,2.2s0.6-4.7,0.6-4.7l3.1-1.4l1.7,1.4l-1.7-5.5L672.8,938.8z"/>
	<path class="st4" d="M726.1,912.8c0,0,0.6-3.1,1.1-2.2c0.6,0.8,2.2,2.2,2.2,2.2h2.2l0.2,16.8l-1.7,11h-9.3l-3.3,11.3
		c0,0-1.6-0.3-2.7-1.4s0-8.4,0-8.4h-5.1l-13.4-4.1l-1.4-1.2c0,0,20.7,0.4,19.9,1.2s-5.3-3.3-5.3-3.3H705h11.7l3.6,1.3l5.3-3.3
		l-2.2-4.2l-5.3-3.3l-2-5l3.9-0.3l3.3,7.3l2.2-2.2l0.6-9.5V912.8z"/>
	<path class="st4" d="M667.2,1005.2c0,0,4.7,19.5,4.2,20.7c-0.6,1.1,0,8.7,0,8.7l1.4,8.7l-2.8,3.9c0,0,4.2,5,4.2,7.3s0,7,0,7
		l-3.5,1.7l-1.5,2l-2-3.3l-4.5-0.8l-5,13.1c0,0-7.8,11.2-4.7,14.5s4.7,7.8,4.7,7.8l3.3,2.2h4.7l-0.3,3.1h-9.8l-1.2-0.2
		c0,0-15.4-11.6-5.7-28.7l8.8-9.9l8.7-15.7l1.4-9.3l-1.2-18.6L667.2,1005.2z"/>
	<path class="st4" d="M675.9,1068.1c1.5-1.1,2.8,3.5,3.9,4.7c1.1,1.1,14.5,1.4,15.1,1.7c0.6,0.3,10.8,0.7,11.3,2.6s0,3,0,3
		s-7.1-4.2-12.7-4.2s-14,0.3-14.8-0.6c-0.8-0.8-2.8-3-2.8-3S673.1,1070.1,675.9,1068.1z"/>
	<path class="st4" d="M717.7,1069.5c0,0,1.1,6.3,2,6.3c0.8,0,5.4,1.2,5.4,1.2s-0.5,1.1,0,3s2.6,10.9,0,12.6s-1.5,5.6-5.7,5.9
		s-9.5,0-9.5,0l-6.1,3.1l-2.2,3.5l16.7-3.6c0,0,10.9-1,11-8.2s0-1.2,0-1.2s0.7-9-1.7-12S717.7,1069.5,717.7,1069.5z"/>
	<path class="st4" d="M710,980.6l-2.3,0.8c0,0-1.2,8-1.8,9.1s-2.1,26.4-2.2,27.7c-0.1,1.3,0,10.8,0,10.8l3.5-28.5l1.2-10.8l0.8-6.3
		l1.2-2.2L710,980.6z"/>
	<path class="st2" d="M615.6,686l4.2,39.6h37.4l3.1-39.6H615.6z M651.9,720.2l-26.2,0.8l-2.8-26.5l30.6-0.1L651.9,720.2z"/>
	<polygon class="st2" points="615.6,686 619.8,725.6 657.2,725.6 660.2,686 	"/>
	<polygon class="st2" points="651.9,720.2 625.6,721 622.8,694.5 653.4,694.3 	"/>
	<circle cx="617.5" cy="498.7" r="5"/>
	<circle cx="615.6" cy="521" r="5"/>
	<circle cx="615.6" cy="540.8" r="5"/>
	<circle cx="648.8" cy="539.4" r="5"/>
	<circle cx="647.3" cy="518.3" r="5"/>
	<circle cx="645.9" cy="497.2" r="5"/>
	<polygon class="st1" points="533.7,448.5 531.1,454 541.6,463 543.3,469.7 552.8,474.7 561.4,480.3 572,482.4 577.1,488.4 
		577.1,482.4 570.3,475.5 560.7,472.6 	"/>
	<path class="st9" d="M595.8,431c0,0-17.6,27.1-18.1,30.7c-0.6,3.6,2.8,20.7,2.8,20.7s-11.4-8.1-12.8-8.4c-1.4-0.3-7-1.4-7-1.4
		l-29.6-26.5c0,0,5.8-12,7.5-13.4c0,0,9-18.1,18.7-17.9c0,0,5.6-2.5,6.1-4.5c0,0-1.7-8.7,9.5-6.7c0,0,2.4,9,4.6,10.4l7.7,5.9
		c0,0,8,6.5,8.9,7.1C595,427.7,595.8,431,595.8,431z"/>
	<path class="st9" d="M684.9,478.2c0,0,3.1-14.2,5-15.3s20.4-23.4,20.4-23.4l5.9-9.2l-2.7-1.1L682.2,408h-6.1l-18.8,17.4l-2.5,9.7
		C654.6,435,685.4,450.9,684.9,478.2z"/>
	<path class="st1" d="M468.9,452.1c0,0-15.8,10.3-17.7,10.6c-2,0.3-19.9,14.4-32.7,4.2c-1.4-1.1-17,1.4-24.3-2.8l13.7-0.3
		c0,0-9.5-1.9-13.7-2.5s-13.4,0-13.4,0v5l-2.2-14.2l-0.6-3.4l5.2,0.4l11.2,7.1l14.3,4.8h21.5L468.9,452.1z"/>
	<path class="st1" d="M371.7,516c0,0,0.6-9.5,2.5-10c2-0.6,6.4-3.7,6.4-3.7l-2.5-38.7l2.8-2.2c0,0,3.6,39.6,2,42.4
		c-1.7,2.8,0.1,5.7,0.1,5.7S379.5,517.7,371.7,516z"/>
	<path class="st1" d="M322.5,510.8c0,0,7.6,6.8,8.5,7.5c0.8,0.7,2.8,3.5,5,2.7s7.5-2.3,8.4-2.7c0.8-0.4,8.4,0,8.4,0l5.6,1.3l1.2,1.4
		l-13.2,2.3l-13.4,1.3l-14.3-1.9L322.5,510.8z"/>
	<path class="st1" d="M315.6,435.7l31.8-2.8l13.9,2.8c0,0,1,3.8-1.9,3.5c-2.8-0.3-11.8-3.9-13.7-3.2c-2,0.7-23.7,1.2-25.1,2.1
		c-1.4,0.8-0.8,4.8-0.8,4.8S317.3,436.1,315.6,435.7z"/>
	<polygon class="st1" points="445.5,498.7 456.6,497.2 466,500 482.6,502.2 489.7,503.7 488.6,505.7 474.8,505.7 	"/>
	<path class="st1" d="M575.4,669.8l-0.8,20.4l2.8,15.5l6.9,13.9l5.2,14.5c0,0-7.5-43.4-8.5-47.2s-2.9-18.9-2.9-18.9L575.4,669.8z"/>
	<path class="st1" d="M512.2,714.8c-0.2,3.8,0,14.3,0,14.3l-5.1,9.7V731l-4.6,3.1c0,0-1,11.3-1.3,12c-0.3,0.8-2.3,7.2-2.3,7.2
		l-2.6-6.9c0,0-3.8,6.6-4.9,6.9s-3.8,12.5-3.8,12.5l3.8,2.3l1.3,6.6l-9.3-4.8c0,0-2.6-8.4-1.6-10.9s4.9-9.8,4.9-9.8l7-6.6l4.5-11.2
		l6.3-3.3L512.2,714.8z"/>
	<circle cx="568.4" cy="510.8" r="5"/>
	<circle cx="565" cy="547.4" r="5"/>
	<circle cx="563.5" cy="584.8" r="5"/>
	<circle cx="560.8" cy="622.6" r="5"/>
	<circle cx="560.8" cy="664.6" r="5"/>
	<circle cx="564.3" cy="703" r="5"/>
	<circle cx="572" cy="741.7" r="5"/>
	<path class="st1" d="M663.7,441v4.8l17.1,22.7l2,14l2-4.2C684.9,478.2,691,467.8,663.7,441z"/>
	<polygon class="st1" points="660.2,441 656.1,437.9 652.3,441.3 656.3,448.7 	"/>
	<polygon class="st1" points="595.4,436.1 597.1,441 595.3,453.4 593.2,441 593.2,437.9 595.8,432.9 	"/>
	<path class="st1" d="M520.5,522.1l15.7,7l-3,6.7c0,0,4.2,5,3,7.1s10.4,29.8,10.4,29.8l-2.3,19C544.4,591.6,542.8,544.5,520.5,522.1
		z"/>
	<path class="st1" d="M913.9,437.9c-1.9,0.8-18.6,3.1-18.6,3.1H883l-4.1,7.8c0,0-1.9,4.1-3,4.7c-1.1,0.5-3.7,6.2-3.7,6.2
		s3,8,3.3,8.8s2.6,5.6,2.6,5.6l-6-1.9l-1.9-10.8l-2.6-12.6l3-0.7l2.2-10c0,0,13-2.1,14.6-2.2c1.5-0.1,26.4-0.3,26.4-0.3l7.4,0.2
		L913.9,437.9z"/>
	<path class="st1" d="M874.8,478.2v20.5v8.8c0,0,16.4,2.1,17.9,3.3c1.5,1.2,8.2,5.4,8.2,5.4l14.5,7.1v2.7l-20.3-5l-20.3-2.7
		l-14.9-7.5l-27.2-13.6l29.8,11.1l5.2,0.7l-3.4-3.3L874.8,478.2z"/>
	<polygon class="st1" points="919.9,513.3 908.3,508.7 901.3,508.7 901.3,510.8 912.1,513.3 	"/>
	<polygon class="st1" points="745,438.6 734.9,441 730.5,442.9 716.1,438.6 710.3,439.4 714.4,432.9 732.7,435.3 	"/>
	<polygon class="st1" points="704.5,446.3 704.5,451 695.4,461.7 690.7,468.4 688.2,466 	"/>
	<polygon class="st1" points="662,457.4 670.7,470.6 680.8,513.3 660.2,460 	"/>
	<polygon class="st1" points="774.4,501.1 756.1,498.7 751.3,503.7 739.4,501.4 732.7,503.7 727.6,508.7 725.6,513.3 741.6,508.7 
		753.1,507.3 759.1,506.4 	"/>
	<path class="st1" d="M695.4,580.1l3.1,24.9c0,0,0.7,12.3,0,14.1s-1.4,11.3-1.4,11.3l-1.7-7.9l-4.2,18.8c0,0,4.6-65,0-76.5
		s0,3.4,0,3.4L695.4,580.1z"/>
	<path class="st1" d="M759.5,758c0,0-3.3,9.7-9.5,8.9l-6.5,3.1l6.5,2.1l-3.5,6.7l-6.3,13.8v8.6v7.6l9.7-28.7l9.7-14.7l5.3-19.1
		L759.5,758z"/>
	<path class="st1" d="M677,749.3c0,0,18.5,10.1,14.4,11.3c-4.1,1.1,0.6,9.4,0.6,9.4s9.9,7.4,10.2,7.5c0.4,0.2,5.9,10.6,5.9,10.6v4.2
		l-9.3-13.5C698.8,778.8,679.7,772.5,677,749.3z"/>
	<path class="st1" d="M694,712.7l4.8,5.4L694,712.7z"/>
	<path class="st1" d="M696.3,682c0,0,8.3,3.3,8.2,3.9c-0.1,0.6-1,2.3-1,2.3L696.3,682z"/>
	<polygon class="st1" points="698.8,655.6 704.5,655.6 704.5,660.1 698.8,657.9 	"/>
	<polygon class="st1" points="706.1,635.9 698.1,635.9 697.8,638.5 	"/>
	<polygon class="st1" points="706.1,600.9 698.5,605 698.8,607.3 706.1,604.1 	"/>
	<polygon class="st1" points="703.5,571.5 695.4,571.5 696.3,574.9 	"/>
	<polygon class="st1" points="701.7,547.4 692.5,545.9 692.5,550.1 	"/>
	<polygon class="st1" points="696.3,518.3 688.2,523.3 689.1,526 695.4,522.1 	"/>
	<polygon class="st1" points="688.2,493.7 681.4,497.2 681.4,501.4 688.2,497.6 	"/>
	<path class="st1" d="M725.6,655.6l-2.3,9l10.5,23.7h4.2c0,0,8.4,16.4,8.9,19.4s5.5,13.3,5.5,13.3h2.4c0,0,7.9,7.8,4.2,10l3.7-2.2
		c0,0-8-19.9-10.3-21.1c-2.3-1.2-14.4-25.6-14.4-25.6L725.6,655.6z"/>
	<path class="st10" d="M577.1,607.3c1.1-2.6,3.8,10,2.7,10.8c-1.1,0.7-0.2,10.4-1.2,12.5c-1,2-1.9,22.5-1.9,22.5
		S572.9,616.9,577.1,607.3z"/>
	<path class="st10" d="M631.4,506c0,0-1.4,35.9-1.6,42c-0.2,6.1,0,12.5,0,12.5l-2-38.4v-11.3L631.4,506z"/>
	<polygon class="st10" points="597.6,456.4 595.2,478.2 589.4,494.1 586.5,534.4 582.8,544.5 595.3,453.4 	"/>
	<path class="st10" d="M581.4,555.2c0,0,13.3,15.2,18.6,16.4s12.5,1.7,12.5,1.7l-9.7,3.7c0,0-16.7-3.2-18-3.7
		c-1.3-0.6-4.7-8.4-4.7-8.4L581.4,555.2z"/>
	<polygon class="st10" points="692.5,627 680.8,635.9 656.3,635.9 638.1,641.4 653.4,641.4 674.2,638.5 686.1,641.4 690.5,648.1 	
		"/>
	<path class="st10" d="M667.3,478.2l-1.9,2.3l3.8,9.5l1.3,8.7l3.6-2.8l2.3,17.4l4.4,8.9C680.8,522.2,677.4,497.9,667.3,478.2z"/>
	<polygon class="st11" points="622.6,498.7 631.4,497.2 640.9,497.2 640.9,498.9 632.3,498.7 	"/>
	<polygon class="st11" points="620.5,519.9 630.2,518.3 645.9,519.1 643.1,521 631.4,519.7 620.6,521 	"/>
	<polygon class="st11" points="620.6,540.8 629.6,537.8 643.8,539.4 644,540.8 630.1,539.4 	"/>
	<path class="st12" d="M285.8,474.9c0,0,6,17.4,4.8,18.5s1.8,10.1,0.1,10.7c-1.7,0.7-5,1.9-5,1.9S285.1,479.8,285.8,474.9z"/>
	<polygon class="st12" points="206.6,480.6 262.4,474.9 262.4,477.7 256.4,480.6 210.3,483.4 207,483.7 	"/>
	<path class="st12" d="M217.4,503.4c0,0,17.1-8.2,19.7-8.9c2.6-0.7,11.5-2.9,11.5-2.9l13.8-4.9l3.5,2.6l-4.6,5.7l-17.5,2.9l-13.8,2
		L217.4,503.4z"/>
	<path class="st12" d="M267.6,503.4c0,0-10,3.3-11.5,4.1c-1.5,0.7-17.9,9.7-19.3,9.7s-5.1,3.1-5.1,3.1h5.8l24.9-10.6l7.4-4.5
		L267.6,503.4z"/>
	<polygon class="st12" points="269.8,520.3 261.3,515.3 264.3,520.3 265.6,522.4 	"/>
	<polygon class="st12" points="243.8,503.4 247.8,511.9 253.8,511.9 	"/>
	<polygon class="st12" points="238.9,486.5 238.9,496.7 243.8,498.1 	"/>
	<polygon class="st12" points="231.6,468.8 231.6,480.6 237.1,480.6 	"/>
	<polygon class="st12" points="269.5,507.7 271.4,506 274,507.7 274.7,510.5 271.9,515.3 271.4,510.7 	"/>
	<polygon class="st13" points="270.9,454.3 267.6,449.9 274.7,444.3 282.6,447.3 288.4,452.5 285.5,458.4 278,458.4 	"/>
	<polygon class="st12" points="262.4,454.3 262.4,456.9 228.3,464.4 207.7,464.5 230.2,461.6 258.1,454.3 260.2,454.3 	"/>
	<polygon class="st12" points="264.3,476.1 266.5,474.9 270.9,478.5 270.9,485.1 268.1,488.5 266.5,486.5 267.1,483.4 	"/>
	<polygon class="st12" points="264.3,488.9 268.1,488.5 271.9,495.1 271.4,500.2 267.6,503.4 269.5,498.1 	"/>
	<polyline class="st12" points="269.1,465.1 266.5,474.9 262.4,477.7 262.4,474.9 	"/>
	<polygon class="st12" points="268.1,456.8 265.9,459.4 269.1,464.5 277.5,470.6 283.9,470.6 289.3,464.5 288.4,462.1 284.1,467.9 
		279.1,468.8 272.9,462.8 	"/>
	<path class="st12" d="M313.1,462.4v4.9l-0.8,1.5c0,0-5.7-2.5-6.3-2.5c-0.6,0-13.7-1.2-13.7-1.2l-2.9-0.6l2-3.2L313.1,462.4z"/>
	<path class="st12" d="M318.6,462.6l0.7,0.1l4.6,1c0,0,5.4,15.6,0,38.8l-3.1-1C320.8,501.4,324.9,470,318.6,462.6z"/>
	<path class="st2" d="M250.7,425.3c0,0,16.4,1.1,16.9,1.4s7,2.5,7,2.5v5.3c0,0-5.2,17.1-30.9,23.5c0,0-35.4,13.1-39.9,1.6
		c-0.2-0.4-0.3-0.8-0.3-1.2c-2.4-13.6,13.5-26.1,16-25.5C219.6,432.9,233.3,445.4,250.7,425.3z"/>
	<polygon class="st12" points="274.7,436.8 272.1,442.9 265.6,451.3 262,450 	"/>
	<path class="st14" d="M209.1,73.7"/>
	<path class="st15" d="M265.6,432.9l-11.7-4.6h-3.1v-3l12.3,0.9l7.9,1.7l1.1,5l-7.8,12l-10.5,6.5l-5,0.5c0,0,14.1-11.2,15.5-13.3
		L265.6,432.9z"/>
	<path class="st14" d="M250.7,425.3c0,0-63-91.5-16.4-261.8l-13.1,7.3l10.3-42.4l-11.5,5.8l6.1-41.5l-8.9,8.4c0,0-0.6-43.5,9.5-57.5
		c0,0-26.8,16.2-53,160.7c0,0-11.7,107.2,45.8,228.6l12,13.5l19.1-5.4L250.7,425.3L250.7,425.3z"/>
	<path class="st16" d="M209.1,72.1c10.6-24.2,17.7-28.6,17.7-28.6c-10,14-9.5,57.5-9.5,57.5l8.9-8.4l-6.1,41.5l11.5-5.8l-10.3,42.4
		l13.1-7.3c-37.2,135.7-4.7,221.5,10,250.6c0,0-66.1-164.8-20.3-234.8l2.1-6l-10.3,0.4L223,136c0,0-10-0.3-8.6-2s4.8-30.7,4.8-30.7
		l-5.6-0.7l1.5-31.3v-6L209.1,72.1z"/>
	<path class="st15" d="M930.9,463.8l-1.2,4.6c0,0,20.7,3.2,17.4,16C947.1,484.5,957.2,472.7,930.9,463.8z"/>
	<path class="st15" d="M1011,447.9v6.8c0,0,44.9,21.5,10.9,46.7c0,0,14-8.2,14.9-15.7c0,0,1.3-19.4-4.6-23.4
		C1032.2,462.3,1028.9,452.1,1011,447.9z"/>
	<path class="st15" d="M1007.3,447.9c0,0-23.6,0.3-25.2,24.7c0,0,0.8-18.2,23.3-22.1L1007.3,447.9z"/>
	<path class="st17" d="M925.9,475.8c0,0-0.5,25,1.4,26.5s7.3,3.8,7.3,3.8l3.5,1.7c0,0-5.1,3.9-6.1,3.3s-6.5-3.8-6.5-3.8L925.9,475.8
		z"/>
	<path class="st15" d="M633.2,688.3c0.7-0.3,25.2,0,25.2,0v17.5c0,0-0.2-16-2.1-15.5S633.2,688.3,633.2,688.3z"/>
	<polygon class="st12" points="633.2,457.4 622.6,456.8 624.3,461.4 629.6,461.4 	"/>
	<path class="st0" d="M546.7,327.1l-1.9,16.4c0,0-23.8,15.6,6.3,32.4c0,0,10.9,25.1,13.9,26.4s12.5,11.9,12.5,11.9
		s11.6,11.1,16.6,13s23.4,5.7,23.4,5.7l33.4-2l6.2-5.6c0,0,24.6-20.7,25.7-21.9c1.1-1.2,11.1-26.1,11.1-26.1l3.1,0.7
		c0,0,19.6-17.1,9-29.8l-9-3l-0.8-23.4l-23.3-8.6c0,0-38.8-10.4-52.4-6.7c0,0-39.4,2.6-52.2,7.1c0,0-8.6,1.9-15.1,6.2
		C550.3,321.8,547.8,324.2,546.7,327.1z"/>
	<path class="st12" d="M642.3,407.9l-1.4,3.5l-7.7,2c0,0-7.3-0.8-9-1.1c-1.7-0.3-8.7-3.3-8.7-3.3l2-1c0,0,10.5,2,11.4,2.7
		c0.9,0.8,4.3,0,4.3,0L642.3,407.9z"/>
	<polygon class="st12" points="546.9,355.4 543.6,358 543.6,361.7 544.8,365 546.9,366.4 545.3,362.5 546.9,359.4 	"/>
	<path class="st12" d="M602.2,348.6c0,0,5.3,2.8,4.2,3.1s-6.4,2.2-6.4,2.2L602.2,348.6z"/>
	<path class="st12" d="M564.8,344.9c-0.5,0.1-1.1,0.4-1.7,0.8c-1,0.7-2,1.7-2,1.7l5.3,1.1v-3.6H564.8z"/>
	<polygon class="st12" points="695.9,353.9 699,355.4 700.4,360.9 698.2,366.4 695.9,367.5 698.2,362.8 697.1,359.2 695.5,356.9 	
		"/>
	<polygon class="st12" points="608.6,338.5 617.5,340.2 620.9,346.7 619.5,351.2 618.7,346.7 612.5,341.6 608.6,340.2 	"/>
	<path class="st12" d="M612.5,351.2v8.5v4.2l5,1.7l-1.9,5.3l-3.1,2.8l5,2.5l5.1,2.5v1.7c0,0-7.5-0.3-7.8-1.1
		c-0.3-0.8-2.3-2.2-2.3-2.2s-7.5-3.6-6-5.6s2.1-10,4-12.3C612.5,356.9,612.5,351.2,612.5,351.2z"/>
	<circle class="st18" cx="582.8" cy="349.6" r="16.2"/>
	<path class="st19" d="M599,320.5l-0.9,5.2c0,0-8.5-3.6-33.6,5.4l-2-2.2C562.4,328.9,580.4,321.2,599,320.5z"/>
	<circle cx="581.6" cy="351.2" r="5.5"/>
	<path class="st19" d="M627.9,319.5l1.7,5c0,0,7.8-4.9,34.1,0l1.7-2.5C665.3,322,646.3,317.3,627.9,319.5z"/>
	<path class="st20" d="M655.4,391.1c0,0-5.9,3.5-6.6,3.5c-0.7,0-17.8,4.9-19.9,4.2c0,0-16.9-0.8-18.6-1.1l-12.8-3.8H595l0.7,2.1
		c0,0,9,4,10.7,4.3c0,0,16.8,2,19.2,1.7c0,0,12.6-0.7,13.9-1.3c0,0,10.9-2.9,11.4-3.3l5.3-4L655.4,391.1z"/>
	<path class="st12" d="M625.7,338.5v14l2,15.1c0,0,0.8,3.1,1.8,3.6s3.6,2.8,3.6,2.8s3.5,5.1,2.6,5.3c-0.9,0.2-4.1,2.4-4.1,2.4
		l-3.9,3l-10.3,1.5c0,0-0.6-3.9,1.7-3.8c2.2,0,7.5,0,7.5,0l1-3.6l-3.5-0.8l2.5-3.6l-1-3.3l-3.2-10l-1.6-9.7l3.3-2.7L625.7,338.5z"/>
	<path class="st20" d="M634.7,402c-0.6,0.7-6.1,1.5-6.8,1.4c-0.7-0.2-7.8-0.7-7.8-0.7l2.5,0.7l5.3,1.7l3.6-1.6L634.7,402z"/>
	<path class="st19" d="M615.6,392.9l17.6,0.7l7.7-3.3l7.6,0.1l7.8,3.6l0.9,8.6c0,0,2.1-1.6,0.6-0.6s-3.7,5.9-3.7,5.9
		s2.5-1.3-0.6-0.5s-3.3,2.8-3.3,2.8l-3.6,6.1l-9.5,3.8l-8.1-0.3l-11.3,0.3c0,0-1.5,5.6-2.1,6.2s2.8,13,2.8,13l2.9-8.6l2.1,1.4
		l3.2,5.6l1.7-3l5.2,3.4l1.1-2.9c0,0,1.1-1.6,1.8-3.1c0.6-1.5,5.8,4.8,5.8,4.8l6.5-3.9l9.5-9.1l24.6-20.4l9.4-22l1.7-13.8l3.1-22.3
		l-0.8-23.4l-8.2-3l-17.7-6.2l-12.2-2.8l22.5,9.1c0,0,5.4,6.3,7.4,6c2-0.4,4.1,23.8,4.1,23.8l-3.2,20.7l-3.7,8.7L673.1,390
		l-10.7,1.6l-6.1-4.9l-7.5-5.6l-11.1-2.2l-4.5,1.1c0,0-2.8,3.3-3.6,4.1s-5.9,1.5-7,1.5L615.6,392.9z"/>
	<polygon class="st12" points="610.6,377.3 606.3,380.4 608.6,383 612.5,386.1 614.4,383.7 610.4,381.7 	"/>
	<path class="st21" d="M555.7,255.8c0,0,13.9-33.3,37.5-13.2l2,13.2l-12.3,10.8l-21.6,1.1L555.7,255.8z"/>
	<path d="M544.8,338.5l-8.1-7.4h-14.6c0,0-15.9-5.7-14.8-23c0,0,1.7-9.8,6.7-17.9c0,0,21.8-18.1,23.7-30.7l3.9-14.8l3.2-3.1l2.1-7
		c0,0,1.8,24,16.5,23.7l12.6,0.8l11.1-8.4c0,0,10.4-13.4-5.5-29c0,0,42.7-3.9,49.6,20.7c0,0-6,8.7-2.3,10.9c0,0,8,3.1,13.3-10.9
		c0,0,2.4,10.6,4.3,10.9c0,0,6.1,3.3,11-1c0.2-0.2,0.4-0.4,0.7-0.6c5-5.3,12.2,2.5,12.2,2.5l31.3,34l14.3,10.9
		c0,0,17.2,16.4-3.4,22.6l-15.6,6.7l-0.8-6.6c0,0-48.9-18.9-83.9-14.6c0,0-48.3,0.5-65.6,18.6L544.8,338.5z"/>
	<path class="st12" d="M595.8,435.3l1.8-1.4l-0.9-2.5l2.3,0.6c0,0,10.3,7.7,10.3,8.4c0,0.7,3.2,0.6,3.2,0.6l2.5-14.5l-19.1,2.1v3.3
		l-0.7,2.1L595.8,435.3z"/>
	<path class="st19" d="M622.6,385.5c-1.1,0-6.3,0.7-7,1.1s-5-2.6-5-2.6l-3.6-1.9l-13.8,3.3c0,0-6,3.3-7.4,5.2c-1.5,1.9-5.7,0-5.7,0
		l-11.6-7.1l-10.2-11.9l-6-8.9l1.8-21.6v-16.4l-0.8-5l-6.6,7.2l-1.9,16.4l1.9,10.8l3,13l2.6,11.1l11.1,22.1l11.7,11l17.3,14.6
		l5.7,2.3l10.5,7.5l5.2,0.2c0,0,5.1-3.2,4.4-3.2s1.1-12.8,1.1-12.8l-8.8-0.3l-7.3-4.3l-7.4-7.5l-2.7-6.4l4-4.1c0,0,9.8-5.6,9.8-7.1
		c0-1.4,0,0,0,0l6.5,2.2l10.8,0.8L622.6,385.5z"/>
	<polygon class="st12" points="597.1,449.3 600,455.7 606.3,459.7 601.4,457.4 597.1,455.6 595.2,452.5 596.3,446.3 	"/>
	<path class="st12" d="M639.8,473.5l-4.4,3.5l-1.4,9.1l-0.8,6.7C633.2,492.8,638,474.5,639.8,473.5z"/>
	<path class="st12" d="M653,442.9c0,0,1.1,7.7,0,9l0.8,2.5l2.5-1.8C656.3,452.7,654.5,444.7,653,442.9z"/>
	<path class="st12" d="M656.9,426.3c0,0,0.1,3-0.8,3s-3.8,0.6-3.8,1.2s-5,5.5-5,5.5l-2.3,3.2l-1.1-0.2c0,0,7.2-10.5,13.2-13.6
		L656.9,426.3z"/>
	<path d="M697.9,323.7l-13.1,5l-7,4.7v2c0,0-1.1,33.5-17.6,31c0,0-13.2,3.3-22.5-9.7l-8.8-8.2c0,0-6-6.6-8-6.1s-17.7-9-17.7-9
		l-24.5-5.8l-12.3-3.9l-12.4-6.1l4.8-0.7l7.8,4.3l18.3,3.1l21.4,3.1l17.9,3.9c0,0,16-3.3,16.7-3.3c0.6,0,19.3-1.1,19.3-1.1l12.8,0.6
		l15.1-2.5l8.2-3L697.9,323.7z"/>
</g>
<g id="skeleton_1_">
	<polygon class="st22" points="520.5,459.1 555.7,699.5 708.1,698.5 731.7,457.4 	"/>
	<polyline class="st22" points="520.5,459.1 425.6,483.5 291.3,485.3 	"/>
	<polyline class="st22" points="731.7,457.4 817.4,480.6 923.5,485.9 	"/>
	<polyline class="st22" points="555.7,699.5 575.5,859.7 573,1047.4 	"/>
	<polyline class="st22" points="708.1,701.1 685.5,859.7 688.2,1053.4 	"/>
	<polyline class="st22" points="621.6,304.2 588.7,306.7 568,316.2 553.7,330.3 549.6,339.6 548.3,351.3 548.3,360.8 549.6,382.5 
		560.9,402.5 580.1,415 596.7,421.7 621.6,424.9 646.1,422.1 662.7,415.4 682,402.8 693.2,382.8 694.6,361.2 694.6,351.6 
		693.2,339.9 689.1,330.7 675.5,316.2 654.6,306.7 621.6,304.2 	"/>
	<polyline class="st22" points="561.9,341.1 568.5,337.4 578.8,336.4 590.9,336.4 607.1,340.4 	"/>
	<polygon class="st22" points="569.1,351.3 577.8,347.6 588.2,347.6 596.8,351.8 588.2,352.8 577.8,353.6 	"/>
	<polyline class="st22" points="603.9,381.8 612.5,381.8 621.7,382.6 621.7,377.3 620.3,355.8 620.3,350.3 620.3,344.5 	"/>
	<polyline class="st22" points="680.5,340.7 673.8,337.8 663.4,336.3 651.3,336.7 634.7,339.9 	"/>
	<polygon class="st22" points="671.7,350.3 662.9,346.6 652.4,346.6 644,350.8 652.4,351.8 662.9,352.6 	"/>
	<polyline class="st22" points="638.9,381.8 630.6,381.8 621.7,382.6 	"/>
	<polygon class="st22" points="596.5,398.5 608,395.1 618.8,394 625.6,394.9 632.5,394 643.2,395.1 654.6,398.5 644,404.8 
		632.2,407.6 625.6,408.1 618.8,407.6 607.2,404.8 	"/>
	<polyline class="st22" points="596.5,398.5 602.5,398.8 619.1,398 625.6,398.5 632.2,398 648.6,398.8 654.6,398.5 	"/>
	<polyline class="st22" points="596.5,398.5 602.5,398.8 619.1,400.9 625.6,401.7 632.2,400.9 648.6,398.8 654.6,398.5 	"/>
	<circle id="rightShoulder" cx="520.4" cy="458.4" r="8.2"/>
	<circle id="rightElbow" cx="427.3" cy="483.5" r="8.2"/>
	<circle id="rightWrist" cx="291.3" cy="483.7" r="8.2"/>
	<circle id="rightHip" cx="555.7" cy="702.4" r="8.2"/>
	<circle id="rightKnee" cx="575.6" cy="859.4" r="8.2"/>
	<circle id="rightAnkle" cx="572" cy="1047.4" r="8.2"/>
	<circle id="leftElbow" cx="816.6" cy="481.2" r="8.2"/>
	<circle id="leftWrist" cx="925.5" cy="485.7" r="8.2"/>
	<circle id="leftHip" cx="708.1" cy="702.4" r="8.2"/>
	<circle id="leftKnee" cx="685.6" cy="859.4" r="8.2"/>
	<circle id="leftAnkle" cx="688.2" cy="1053.4" r="8.2"/>
	<ellipse id="rightEye0" cx="569.1" cy="351.3" rx="1.3" ry="0.8"/>
	<ellipse id="rightBrow1" cx="568.5" cy="337.4" rx="1.3" ry="0.8"/>
	<ellipse id="rightBrow4" cx="607.1" cy="340.4" rx="1.3" ry="0.8"/>
	<ellipse id="nose1" cx="620.3" cy="350.3" rx="1.3" ry="0.8"/>
	<ellipse id="rightBrow3" cx="590.9" cy="336.4" rx="1.3" ry="0.8"/>
	<ellipse id="rightEye1" cx="577.8" cy="347.6" rx="1.3" ry="0.8"/>
	<ellipse id="rightBrow0" cx="561.9" cy="341.1" rx="1.3" ry="0.8"/>
	<ellipse id="rightBrow2" cx="578.8" cy="336.4" rx="1.3" ry="0.8"/>
	<ellipse id="rightEye5" cx="577.8" cy="353.6" rx="1.3" ry="0.8"/>
	<ellipse id="rightEye2" cx="588.2" cy="347.6" rx="1.3" ry="0.8"/>
	<ellipse id="rightEye3" cx="596.8" cy="351.8" rx="1.3" ry="0.8"/>
	<ellipse id="nose0" cx="620.3" cy="344.5" rx="1.3" ry="0.8"/>
	<path id="nose3" d="M620.3,362.1c0.7,0,2.7,14.8,2.7,15.3s-0.6,0.8-1.3,0.8s-1.3-0.4-1.3-0.8S619.5,362.1,620.3,362.1z"/>
	<ellipse id="rightNose0" cx="603.9" cy="381.8" rx="1.3" ry="0.8"/>
	<ellipse id="rightMouthCorner" cx="596.5" cy="398.5" rx="1.3" ry="0.8"/>
	<ellipse id="rightNose1" cx="612.5" cy="381.8" rx="1.3" ry="0.8"/>
	<ellipse id="rightUpperLipTop0" cx="608" cy="395.1" rx="1.3" ry="0.8"/>
	<ellipse id="nose2" cx="620.3" cy="355.8" rx="1.3" ry="0.8"/>
	<ellipse id="nose4" cx="621.7" cy="382.6" rx="1.3" ry="0.8"/>
	<ellipse id="upperLipTopMid" cx="625.6" cy="394.9" rx="1.3" ry="0.8"/>
	<ellipse id="rightUpperLipTop1" cx="618.8" cy="394" rx="1.3" ry="0.8"/>
	<path id="rightMiddleLip" d="M602.5,398c0.7,0,1.3,0.4,1.3,0.8s-0.7,0.8-1.3,0.8s-1.3-0.4-1.3-0.8S601.9,398,602.5,398z"/>
	<ellipse id="lowerLipBottomMid" cx="625.6" cy="408.1" rx="1.3" ry="0.8"/>
	<ellipse id="upperLipBottomMid" cx="625.6" cy="398.5" rx="1.3" ry="0.8"/>
	<ellipse id="lowerLipTopMid" cx="625.6" cy="401.6" rx="1.3" ry="0.8"/>
	<ellipse id="rightUpperLipBottom1" cx="619.1" cy="398" rx="1.3" ry="0.8"/>
	<ellipse id="rightLowerLipTop0" cx="619.1" cy="400.9" rx="1.3" ry="0.8"/>
	<ellipse id="rightLowerLipBottom1" cx="618.8" cy="407.6" rx="1.3" ry="0.8"/>
	<ellipse id="rightLowerLipBottom0" cx="607.2" cy="404.8" rx="1.3" ry="0.8"/>
	<ellipse id="rightEye4" cx="588.2" cy="352.8" rx="1.3" ry="0.8"/>
	<ellipse id="jawMid" cx="621.6" cy="424.9" rx="1.3" ry="0.8"/>
	<ellipse id="rightJaw7" cx="596.7" cy="421.7" rx="1.3" ry="0.8"/>
	<ellipse id="rightJaw6" cx="580.1" cy="415" rx="1.3" ry="0.8"/>
	<ellipse id="rightJaw5" cx="560.9" cy="402.5" rx="1.3" ry="0.8"/>
	<ellipse id="rightJaw4" cx="549.6" cy="382.5" rx="1.3" ry="0.8"/>
	<ellipse id="rightJaw3" cx="548.3" cy="360.8" rx="1.3" ry="0.8"/>
	<ellipse id="rightJaw2" cx="548.3" cy="351.3" rx="1.3" ry="0.8"/>
	<ellipse id="rightJaw1" cx="549.6" cy="339.6" rx="1.3" ry="0.8"/>
	<ellipse id="rightJaw0" cx="553.7" cy="330.3" rx="1.3" ry="0.8"/>
	<ellipse id="topMid" cx="621.9" cy="304.2" rx="1.3" ry="0.8"/>
	<ellipse id="leftTop0" cx="654.6" cy="306.7" rx="1.3" ry="0.8"/>
	<ellipse id="leftTop1" cx="675.5" cy="316.2" rx="1.3" ry="0.8"/>
	<ellipse id="leftEye0" cx="672" cy="350.3" rx="1.3" ry="0.8"/>
	<ellipse id="leftBrow1" cx="674.2" cy="337.8" rx="1.3" ry="0.8"/>
	<ellipse id="leftBrow4" cx="635" cy="339.9" rx="1.3" ry="0.8"/>
	<ellipse id="leftBrow3" cx="651.6" cy="336.7" rx="1.3" ry="0.8"/>
	<ellipse id="leftEye1" cx="663.4" cy="346.6" rx="1.3" ry="0.8"/>
	<ellipse id="leftBrow0" cx="680.8" cy="340.7" rx="1.3" ry="0.8"/>
	<ellipse id="leftBrow2" cx="663.7" cy="336.3" rx="1.3" ry="0.8"/>
	<ellipse id="leftEye5" cx="663.4" cy="352.6" rx="1.3" ry="0.8"/>
	<ellipse id="leftEye2" cx="652.9" cy="346.6" rx="1.3" ry="0.8"/>
	<ellipse id="leftEye3" cx="644.3" cy="350.8" rx="1.3" ry="0.8"/>
	<ellipse id="leftNose0" cx="638.9" cy="381.8" rx="1.3" ry="0.8"/>
	<path id="leftMouthCorner" d="M654.6,397.7c0.7,0-2.7-8.6-2.7-8.2s3.4,9.8,2.7,9.8s-1.3-0.4-1.3-0.8S653.9,397.7,654.6,397.7z"/>
	<ellipse id="leftNose1" cx="631" cy="381.8" rx="1.3" ry="0.8"/>
	<ellipse id="leftUpperLipTop0" cx="643.2" cy="395.1" rx="1.3" ry="0.8"/>
	<ellipse id="leftUpperLipTop1" cx="632.5" cy="394" rx="1.3" ry="0.8"/>
	<path id="leftMiddleLip" d="M648.6,398c0.7,0,1.3,0.4,1.3,0.8s-0.7,0.8-1.3,0.8s-1.3-0.4-1.3-0.8S648,398,648.6,398z"/>
	<ellipse id="leftUpperLipBottom1" cx="632.2" cy="398" rx="1.3" ry="0.8"/>
	<ellipse id="leftLowerLipTop0" cx="632.2" cy="400.9" rx="1.3" ry="0.8"/>
	<ellipse id="leftLowerLipBottom1" cx="632.5" cy="407.6" rx="1.3" ry="0.8"/>
	<ellipse id="leftLowerLipBottom0" cx="644" cy="404.8" rx="1.3" ry="0.8"/>
	<ellipse id="leftEye4" cx="652.9" cy="351.8" rx="1.3" ry="0.8"/>
	<ellipse id="leftJaw7" cx="646.1" cy="422.1" rx="1.3" ry="0.8"/>
	<ellipse id="leftJaw6" cx="662.7" cy="415.4" rx="1.3" ry="0.8"/>
	<ellipse id="leftJaw5" cx="682" cy="402.8" rx="1.3" ry="0.8"/>
	<ellipse id="leftJaw4" cx="693.2" cy="382.8" rx="1.3" ry="0.8"/>
	<ellipse id="leftJaw3" cx="694.6" cy="361.2" rx="1.3" ry="0.8"/>
	<ellipse id="leftJaw2" cx="694.6" cy="351.6" rx="1.3" ry="0.8"/>
	<ellipse id="leftJaw1" cx="693.2" cy="339.9" rx="1.3" ry="0.8"/>
	<ellipse id="leftJaw0" cx="689.1" cy="330.7" rx="1.3" ry="0.8"/>
	<ellipse id="rightTop0" cx="588.9" cy="306.7" rx="1.3" ry="0.8"/>
	<ellipse id="rightTop1" cx="568" cy="316.2" rx="1.3" ry="0.8"/>
	<circle id="leftShoulder" cx="731.7" cy="456.8" r="8.2"/>
</g>
</svg>
