<?xml version="1.0" encoding="utf-8"?>
<!-- Generator: Adobe Illustrator 23.0.3, SVG Export Plug-In . SVG Version: 6.00 Build 0)  -->
<svg version="1.1" id="Layer_1" xmlns="http://www.w3.org/2000/svg" xmlns:xlink="http://www.w3.org/1999/xlink" x="0px" y="0px"
	 width="1200px" height="1200px" viewBox="0 0 1200 1200" style="enable-background:new 0 0 1200 1200;" xml:space="preserve">
<style type="text/css">
	.st0{fill:#961414;}
	.st1{fill:#FFB664;}
	.st2{fill:#B27538;}
	.st3{fill:#35312D;}
	.st4{fill:#BF8B25;}
	.st5{fill:#7F5732;}
	.st6{fill:#E20A0A;}
	.st7{fill:#E2CC93;}
	.st8{fill:#EAD6C3;}
	.st9{fill:#BA8C19;}
	.st10{fill:#7C4C22;}
	.st11{fill:#EFA0A0;}
	.st12{fill:#541E1E;}
	.st13{fill:#442E1D;}
	.st14{fill:#EFBB2B;}
	.st15{fill:#184AEA;}
	.st16{fill:#51DD24;}
	.st17{fill:#1D3266;}
	.st18{fill:#FFFFFF;}
	.st19{fill:#CC7D7D;}
	.st20{fill:#3A2525;}
	.st21{fill:#F9CA03;}
	.st22{fill:#544D4D;}
	.st23{fill:#9B722A;}
	.st24{fill:#FCCE59;}
	.st25{fill:#8C8787;}
	.st26{fill:none;stroke:#000000;stroke-miterlimit:10;}
</style>
<g id="illustration">
	<path class="st0" d="M945.4,304.6c0,0,2.7,5,2.2,5.2c-0.6,0.2-4.7,2-4.7,2l2.4,5.2h-5.7l6.1,60.2l3.2,3.3l-0.9,1.2l-4.7,2.7
		c0,0-19.5-15.8-19.7-17.5s7.1-55.2,7.1-55.2l11.3-10.3L945.4,304.6z"/>
	<path class="st0" d="M303.5,313.1c0,0,1.4,60.5,2.5,61.6s2.9,4.3,2.9,4.3l-3.6-65.9l-1.8-1.7V313.1z"/>
	<path class="st1" d="M593.5,291.1l16.1,50.6c0,0,18,26.7,19.9,26.7s22.2-31.9,22.2-31.9l22.4-27.3l-11.4-28.4l-50,3.9L593.5,291.1z
		"/>
	<path class="st2" d="M657.9,292.5l-2.3,6.8L650,300l-8.4,4.2l-12.8-2.3l-6.6-2l-6.5,4.2l-6.4,0.3l-6.3-0.3l-6.6-2.3v-9.4l9.5,2.1
		l27.4-2.1c0,0,15.1-0.8,17.3-1.4C652.7,290.6,657.9,292.5,657.9,292.5z"/>
	<path class="st3" d="M534.9,798.5l51.7-2.2l28.6,7.9l-1.6,12.2v11.4h-4l-17.9,67.4v28.9l8.2,12.1l9.6,5.3l5.6,16.8l-2.5,13.7
		l-23.3,4.7H549l-19.4-6.8l-2.4-15.8l8.9-16.8c0,0,19.5-7.9,21.3-20.5l-14.8-74.2l-1.9-23.4H536v-7.6L534.9,798.5z"/>
	<polygon class="st4" points="668.4,950.4 672.8,974.6 686.2,976.7 700.9,976.7 706.9,907.8 706.5,857.8 716.3,835.2 725.2,818.4 
		727.5,804.2 672.8,804.2 655.6,808 657.9,818.4 665.6,844.2 672.8,853.6 	"/>
	<polygon points="612.5,814.4 610.6,816.9 602.2,808 595.1,804.2 586,811 577.1,816.9 568.1,806 558.9,804.2 552.8,814.1 544.4,808 
		532.4,806.6 557.3,798.5 591.7,794.5 617,808 	"/>
	<path d="M723,822.7l-6.6-3.5l-2.6,3.5h-9.1l-8.9-3.5l-6-7.4l-7.7,9.5l-4.2,1.5c0,0-10.8-13.2-12.2-14.7s2.4-10,2.4-10l48.4,4.5
		l10,12.7L723,822.7z"/>
	<path class="st5" d="M460,612.1l82.5-9c0,0,67.8,31.4,70.3,29.8c2.5-1.6,91.7-8.7,95.8-9.9s23.5-8.2,23.5-8.2l87-17.8
		c0,0-10.3,99.4-61.4,137.1l-16.8,48.6l-6.6,38.5l-6.7,9.2l-10.1-16.7l-10.6,16.7c0,0-7-15.1-12-18.4c0,0-12.2,17.6-12.4,14.2
		s-10-16.7-10-16.7l-12.3,20.9L650,812.7v-38.5c0,0-14.5-57.5-14.1-60.6c0.4-3,0.4-3,0.4-3s-9.9,81.2-16.7,92.9l-2.6,11.9
		l-22.3-15.6L580.5,818c0,0-6.3-16.7-10-16s-13,8.9-13,8.9v3.7c0,0-7.4-10.8-10.4-10c-3,0.7-8.6,5.2-8.6,5.2l-4.8,8.6l-4.1-10.8
		c0,0,0-30.1,2.2-42.8c0,0-1.1-26.8-21.6-49.5c0,0-45.8-63.3-51.7-77l-2.2-28.4L460,612.1z"/>
	<path class="st1" d="M939.6,314.2l31.2,14.8l8.9-9.6c0,0,3.3-23.8,23.4-14.9h7.4h9.3c0,0,8.9-3.8,10.8-3.2c1.9,0.6,6,4.3,6.7,6.7
		c0.7,2.4,4.8,9.1,4.8,9.1l2.2,2.2c0,0,15.6,8,0,25.8c0,0,10.4,11-7.1,19.4c0,0,4.8,13.8-17.5,21.9l-9.7-1.5c0,0-17.9-1.9-20.1-5.1
		c-2.2-3.2-2.2-3.2-2.2-3.2l-12.3-12.1l-11.5,8.7l-21.6,3.7l-11.2,2.8l-9.3-52.7l8.6-15.6L939.6,314.2z"/>
	<path class="st6" d="M605.8,305.9l-5.8-1.4l-11.4,42c0,0-16.6,154.4-16.6,156.4s8.6,49.4,8.6,49.4s-18.3,41.3-20,39.6
		s-18.1,11.2-18.1,11.2l62,28.1c0,0,99.1,2.6,119.7-15.5c0,0,11.2-3.5,10-5.8c-1.1-2.3-39.6-23.5-39.9-31.9S684,555.7,684,555.7
		s21.2-136.2,16.9-142c-4.3-5.9-15.2-53-19.7-58.3s-12-29.1-12-29.1l-5.6-8l-5-5.4c0,0-1.9,8.8-3.2,10s-5.8,5.9-7.4,6.2
		c-1.7,0.3-7.5,12.3-8.4,14.8s-6.4,11.4-6.4,13.1s-0.8,7.3-0.8,7.3l-6.4-15.9c0,0-6.1-14.1-7.8-17.4s-4.7-8.3-6.7-10.2
		s-3.6-9.3-3.6-9.3L605.8,305.9z"/>
	<path class="st7" d="M271.9,381.2c0,0,15.3,5.4,19.5,12.2c4.2,6.8,0,1.6,0,1.6s12.7,15.6,23.9,13.8c0,0,22.3,1.9,12.7,29.8
		c0,0,48.4,34.6,6.3,74c0,0-17.6,16-22.6,14.1s-3.1,0.2-3.1,0.2s-24.4,1.7-25.9,4.3c0,0-17.9,13-21.3,9.7c0,0-44.3-13.4-52.5-48
		c0,0-29.4-5.6-11.2-37.2c0,0-17.5-25.7,6-41.3c0,0,10-20.3,18.6-20.9c0,0-0.2-6,1.9-7.2c2-1.2,6-5,6-5L271.9,381.2L271.9,381.2z"/>
	<path class="st1" d="M303.5,315l-9.5,6l-5.2,1.9l-4.1,7.1c0,0-4.5,4.8-5.6,4.8s-10-3.7-10-3.7l-2.6,5.6v4.2c0,0,9.7,3.1,1.9,12
		s-1.9-0.4-1.9-0.4s7.1,8.4,5.6,11.6s-2.2,7.2-2.2,7.2s7.4,3,4.8,5.2s2.6-2.2,2.6-2.2l8.6-2.2l11.5-4.5l6.1,0.4l5.4,6.3v4.9l13,4
		c0,0,26.4-51.3,11.2-60.3c-15.3-8.9-19.7-12.7-19.7-12.7h-5.2L303.5,315z"/>
	<path class="st6" d="M479.3,321.3l-23.1-3c-23.4,3.3-59.2-8.6-59.2-8.6l-28.7-8.6c-15.3-5.2-42.4-4.1-42.4-4.1
		c-17.9,6-25.3,15.3-21.6,15.6c3.7,0.4,18.6,11.9,18.6,11.9l-8.6,6.7l8.6,9.8l-10,6.4l8.2,10l-8.9,8.8c0,0,7.1,3,6,6.7s-9.3,6-9.3,6
		s3.6-1.3,6.7,7.1c3.1,8.5,26.8,7.1,26.8,7.1l46.9-14.3c0,0,7.5,0.9,34.3,0c26.8-0.8,51.1,14.2,51.1,14.2l12.5-3.9
		C487.1,389.4,487.9,337.7,479.3,321.3z"/>
	<path class="st2" d="M285.8,340.7c0,0,6,17.4,4.8,18.5c-1.1,1.1,1.8,10.1,0.1,10.7c-1.7,0.7-5,1.9-5,1.9S285.1,345.6,285.8,340.7z"
		/>
	<path class="st1" d="M260.2,318.3c0,0-42.5,13.8-44,11.9s-8.6,0.2-8.6,0.2l-4.1,10.7v6.4l8.2,4.8c0,0-2.6,9.9,0.4,11.6
		s5.2,5.4,5.2,5.4l1.9,7.8c0,0,5.6,8.6,8.6,8.6s12.3,2.6,12.3,2.6l14.9,3h9.4c0,0,6.6-1.5,8.5-8.2s-3-11.9-3-11.9l2.2-7.2l-7.8-9.1
		l7.1-8.2l-9-5.9l5.9-8.1l10.8,2.1c0,0,13-11.5,9.7-11.9s6.7-10.8-16.4-21.2L260.2,318.3z"/>
	<polygon class="st2" points="206.6,346.4 262.4,340.7 262.4,343.6 256.4,346.4 210.3,349.2 207,349.5 	"/>
	<path class="st2" d="M260.2,320.2h2.2l3.7,4.5c0,0,5.2,6,6.3,5.6c1.1-0.4,5.5-1.2,7.8,0s2.3,1.3,2.3,1.3l-3.5,3.2l-7.7-1.5
		L260.2,320.2z"/>
	<path class="st2" d="M260.2,318.3l2.2,1.9L260.2,318.3z"/>
	<path class="st2" d="M217.4,369.3c0,0,17.1-8.2,19.7-8.9c2.6-0.7,11.5-2.9,11.5-2.9l13.8-4.9l3.5,2.6l-4.6,5.7l-17.5,2.9l-13.8,2
		L217.4,369.3z"/>
	<path class="st2" d="M267.6,369.3c0,0-10,3.3-11.5,4.1c-1.5,0.7-17.9,9.7-19.3,9.7s-5.1,3.1-5.1,3.1h5.8l24.9-10.6l7.4-4.5
		L267.6,369.3z"/>
	<polygon class="st2" points="269.8,386.2 261.3,381.2 264.3,386.2 265.6,388.3 	"/>
	<polygon class="st2" points="243.8,369.3 247.8,377.7 253.8,377.7 	"/>
	<polygon class="st2" points="238.9,352.3 238.9,362.6 243.8,363.9 	"/>
	<polygon class="st2" points="231.6,334.7 231.6,346.4 237.1,346.4 	"/>
	<polygon class="st2" points="264.3,342 266.5,340.7 270.9,344.3 270.9,351 268.1,354.4 266.5,352.3 267.1,349.2 	"/>
	<polygon class="st2" points="264.3,354.8 268.1,354.4 271.9,361 271.4,366.1 267.6,369.3 269.5,363.9 	"/>
	<polygon class="st2" points="269.5,373.5 271.4,371.9 274,373.5 274.7,376.4 271.9,381.2 271.4,376.5 	"/>
	<polyline class="st2" points="269.1,331 266.5,340.7 262.4,343.6 262.4,340.7 	"/>
	<polygon class="st8" points="270.9,320.2 267.6,315.7 274.7,310.1 282.6,313.1 288.4,318.3 285.5,324.3 278,324.3 	"/>
	<path class="st9" d="M221.8,429.2c0,0,13.9,11.5,24.6,7.4l-4.8,4.1c0,0-16.5-2.6-19.8-8.9S221.8,429.2,221.8,429.2z"/>
	<path class="st9" d="M253.8,448.9c0,0,6.7,5.2,16,3.3c9.3-1.9,9.3-1.9,9.3-1.9l3.5-9.7l2.9-1.9l-2.9,10.4l2.9-0.7
		c0,0-4.5,6.7-7.5,7.1s-12.1,0-12.1,0l-13.9-6.3L253.8,448.9z"/>
	<path class="st9" d="M220.3,396.4c0,0,5.6,1.1,4.8,3c-0.7,1.9,0.1,5.2,0.1,5.2s0.1-12.1,0-11.3S220.3,396.4,220.3,396.4z"/>
	<path class="st9" d="M274.7,384.7c0,0,7.5,30.7,10.8,30.3c3.3-0.4-5.8-17.8,0-19.7l15.6,13l6.7,5.2c0,0,12.3,7.8,10.8,8.6
		c-1.5,0.7,3.3,0.7,3,2.2c-0.4,1.5,5.6,9.7,1.9,10.1s-11.9,2.6-11.9,2.6l1.9,1.9h9.3l4.1,1.9c0,0,5.6,10.4,3,15
		c-2.6,4.7,0.7,28.1,0.7,28.1l2.3,6.3c0,0-0.4-11.2,0-12.3c0.4-1.1,0-19,1.9-18.2c1.9,0.7,4.8,3.3,4.8,3.3s4.1,25.3,2.2,27.2
		c-1.9,1.9-3.7,13-6.3,13.8c-2.6,0.7-11.2,7.4-11.2,7.4l-7.8,7.1l-4.7,8.2l-3.1,0.2c0,0,19.3-2.8,25.7-14.3s16.9-9.6,16.4-26.3
		c-0.5-16.7-1.8-19.8-6.6-30.4c-3.8-8.5-7.2-12.1-16.1-17.3c0,0,9.5-22.7-12.7-29.8c0,0-11.3,0.4-23.9-13.8c0,0-1.8-7.1-16.7-12.7
		L274.7,384.7L274.7,384.7z"/>
	<path class="st9" d="M241.6,480.9l4.8,1.1v1.9c0,0,8.5,13,25.6,6c0,0,4.8,4.8-6.1,6c0,0-18.2,0.7-24.3-9.3L241.6,480.9L241.6,480.9
		z"/>
	<path class="st9" d="M303.5,468.3c0,0,11.4,11.5,9.1,15.3l-6.3,7.8c0,0-6,1.9-7.1,2.2c-1.1,0.4-7.9,7.8-7.9,7.8s8.6-4.5,9.7-4.5
		s8.6-2.6,10.1-5.6s3.7-8.6,3.7-8.6s-5.2-16-7.8-16.7S303.5,468.3,303.5,468.3z"/>
	<polygon class="st9" points="252,402.8 265.6,416.5 264.3,420.3 257.4,411.5 250.7,406.5 	"/>
	<path class="st7" d="M248.8,288.3l16.7,2.4c0,0,4.6,1.2,4.3,3.4c-0.4,2.2,1.1,9.5-1.1,12.5s-8.5,11.7-8.5,11.7l-30,9.1l-14,2.8
		h-12.7c0,0-5.2-6.7-5.2-10s5.2-14.1,5.2-14.1s-1.9-9.9-3.7-9c-1.9,0.8-8.5,0-8.5,0s-9.4-7-8.6-8.3c0.7-1.3-0.4-2-1.9-2
		s-7.1,0.7-7.4-1.9c-0.4-2.6-6.7-17.3-3-17s33.1,4.7,33.1,4.7s3.7-3,3-5s-3-12.2-3-12.2s10.4-6,11.5-5.9s7.7-0.8,7.7-0.8l2.5,15.8
		l6.3,7l2.9,1.6l2.6,1.4l6.7,10l2.7,5L248.8,288.3z"/>
	<path class="st9" d="M246.5,289.4c0,0-6.8,13.6-7.5,14s-11,1.9-13.7,2.2s-14.2,0-15.4,0c-1.1,0-6.3-4.1-6.3-4.1s21.2,1.5,24.2-1.9
		c3-3.3,13.6-7.6,13.9-9s2.2-4,2.2-4L246.5,289.4z"/>
	<path class="st9" d="M233.4,286.7l-8.1,5.9c0,0-4.2,3.5-7.9,3.6s-5.2,0.6-8.2,0.7s-9.3,0-9.3,0l6.7-5.1c0,0,6-0.4,7.1-0.4
		s24.9-8.4,20.8-18.5l2.6,3.3L233.4,286.7z"/>
	<path class="st9" d="M203.6,272.5l14.9,0.4l6.8-4.4l3.1-0.8v5.2c0,0-11.2,7.8-12.4,7.4s-20.6-6.3-20.6-6.3l-7.5-3.9L203.6,272.5z"
		/>
	<polygon class="st2" points="262.4,320.2 262.4,322.7 228.3,330.2 207.7,330.4 230.2,327.4 258.1,320.2 260.2,320.2 	"/>
	<polygon class="st2" points="272.4,301.6 265.6,311 262.4,315.3 268.7,310.1 	"/>
	<path class="st2" d="M483,320.2l10.6-4.8l3.3-5.2l48.1-12.4l2.7-0.7H561l6.4,8.8c0,0,10.6-2.8,10-4.3s5.4,6.9,5.4,6.9l1,6.9
		l7.6,8.9h3.3c0,0-21.4,151.1-19.1,190.7c0,0,18.2,61.4-14.6,79.8l-39.5,25.1c0,0-19.5,19.5-44.7,7.3c0,0-91-63.7-39.1-163
		l36.8-70.8l12.5-3.9c0,0-1.5-42-4.5-58.4l-3.3-9.7L483,320.2z"/>
	<path class="st10" d="M487.1,389.4l-12.5,3.9l-29,47.4l-2.8,13.8c0,0,16.2-16.4,16.8-20.1c0.6-3.7,1.3-16,5.4-17.1
		C469.1,416.2,487.1,389.4,487.1,389.4z"/>
	<path class="st10" d="M540.6,607.8l-21.8,5.4l8.3,3.2l-18.8,4.1l-7.4-6.3l7.4,11.9h-21.1l-15.8-11.7l-11.3-2.2l16.9,15
		c0,0,21.2,9.7,29,4.1S537.9,617.9,540.6,607.8z"/>
	<polygon class="st10" points="567.4,308.4 575.5,308.4 575.6,305.8 579.5,310.1 584.4,324.3 592.5,331 594.7,324.3 587.1,315.3 
		583.6,305.8 577.4,301.6 564,305.8 	"/>
	<path class="st10" d="M547.8,305.8c0,0-7.1,6.5-7.2,7.1c-0.1,0.6-9.6,4.3-9.6,4.3l-5.6-5.7l-4.9-5l9.8-6.5l8.7-2.2l1.6,1.1l7.2-1.8
		V305.8z"/>
	<path class="st10" d="M522.7,315.3c-1.7-0.7-9.5,3-9.5,3l-4.9-1.5l-10.7,1.5l-3.9-3l12.3-6.9l12.7-3.9l6.8,7L522.7,315.3z"/>
	<path class="st10" d="M422.4,535.8l20.4-20.8c0,0-7.6,13.7-10.2,20.8s1.9,19.4,2.4,21.1c0.6,1.7,4.5,10.6,4.5,10.6l5.6,12.8
		L438,583C438,583,419.2,548.2,422.4,535.8z"/>
	<path class="st2" d="M660.9,322l8.6,3h3c0,0,1.5-18.3,6.7-17.9l7.8,8.9l4.8-2.2l4.8-12.3l-0.8-1.9l-1.1-2.7l9.3-5.9l7.4,3
		c0,0,33.1,6.7,68.5,20.1c0,0,2.3,6.8,0.8,15.6c-3,18.2-9.5,47.3,1,59.6c0,0,100.5,90.4,65.1,159.6c-35.3,69.2,0,1.5,0,1.5
		s-24.8,65.6-56,66.7c0,0-42.8,28.7-103.4-40.2l-6.3-6l2.6-27.5c0,0,20.1-109,3-144C686.6,399.4,675.8,339.1,660.9,322z"/>
	<path class="st10" d="M717.4,301.6l16.4,3h7.8c0,0,11.5,5.2,12.7,5.6c1.1,0.4,13,4.1,13,4.1l3.3,9.3l-3.7,26.4l-5.2,4.5
		c0,0,9.7-1.1,8.9,0c-0.7,1.1-3.3,8.6-3.3,10.4c0,1.9,3.4,7.4,3.4,7.4l2.9,4.8l6.3-48.8v-14c0,0-57.1-17.5-59.8-18.2
		C717.4,295.4,717.4,301.6,717.4,301.6z"/>
	<path class="st10" d="M704.1,291.1c1.1,4.8,0,5.9,0,5.9l-7.4,4.5v5.6c0,0-3.7,9-4.8,10.1s-6,1.1-6,1.1l-5.6-5.2l-3.3-1.7v5.8
		c0,0-4,3.6-4.1,4.7s-0.3,3.1-0.3,3.1s4.5-17.2,6.7-17.9s7.8,8.9,7.8,8.9l4.8-2.2l3.7-9.3l-0.7-7.6L704.1,291.1z"/>
	<path class="st10" d="M677.7,361.4l10.8,17.2c0,0,0.7,14.7,1.4,14.8c0.7,0.1,3.7,9,4.5,11.3c0.7,2.2,1.9,13,2.2,15.3
		c0.4,2.2-0.4,17.9,0,19.3s0.1,37.6,0.1,37.6s5.1,23.1,4,22.7s-8.2,1.9-8.2,1.9l-3.2,3.6C689.3,505,695.3,387,677.7,361.4z"/>
	<path class="st10" d="M706.5,596.1c0,0,19.1,12,24.7,11.6c5.6-0.3,13.8,0,13.8,0s7.4-4.4,3.7-2.2s-9.7,6-9.7,6s9.2,2.2,10.7,1.9
		c1.6-0.4,18.3-2.6,18.3-2.6l6.7-0.7c0,0-8.2,7.1-5.6,7.1c2.6,0,16.7-3.3,16.7-3.3l3-3c0,0,23-13.2,27.7-8.4c4.7,4.7,1.6,1.8,0,1.7
		c-1.6,0-20.2,15.2-38.5,18.9c-18.2,3.8-52.1-7.4-60.7-18.2L706.5,596.1z"/>
	<path class="st10" d="M837.3,459.3c0,0,0.5,19.4,0,20.9s5.5,3.7,5.5,5.2s-2.9,7.8-2.8,8.6s4.6,21,4.6,21s2.2,30.7,0,31.1
		c-2.2,0.4-7.4,15.6-7.4,15.6l-2.2,10.5c0,0,24.6-35.5,19.3-66.8C852.3,492.6,853.1,494.6,837.3,459.3z"/>
	<path class="st6" d="M780,314.2c0,0,31.6,15.3,54,10.8c0,0,45-19.7,80-25.7s1.9,0,1.9,0s23.4-11.5,33.1,1.5l-15,18.3
		c0,0,8.2,2.6,9.7,2.6s1.5,0,1.5,0s-7.1,11.5-8.9,11.2c-1.9-0.4-3.3,5.6-3.3,5.6s14.9,11.2,16,7.8l-18.2,11.9
		c0,0,10.8,21.6,11.9,21.6s10.8,4.1,10.8,4.1l-22,10L892,383.1c0,0-41.1,5.6-46.8,3.7c0,0-35.3,16.6-61.2,4.6
		c0,0-18.7-18.4-6.7-50.4C777.3,341,781.4,318.3,780,314.2z"/>
	<path class="st11" d="M685.9,274.9c0,0,21.3,10.4,18.6,14c0,0,5.5,11.2-7.9,12.7c0,0-2.9,26.1-13.7,9.9l-5.9-3.4
		c0,0,2.8,14-4.6,16.9c0,0-13.8,4.5-17.9-3.3c0,0-3.3-24.6,6.3-30.5C660.9,291.1,667.8,287.1,685.9,274.9z"/>
	<circle class="st11" cx="619.6" cy="364.6" r="5.1"/>
	<path class="st0" d="M628.7,359.5c0,0,8.7,86.5,6.7,90.4s-0.4-84.2,1.7-94.6c2.1-10.4-0.9-4.8-0.9-4.8l-3,6.5l0.1,10.2l-2.8-7.7
		H628.7z"/>
	<path class="st0" d="M596.3,345.2l-1.2-16.1c0,0-5.9,35.5-6.1,36.9c-0.2,1.4,0,8.4,0,8.4l-2.5,15.8c0,0,10-30.8,9.7-36.1
		C596.1,348.6,596.3,345.2,596.3,345.2z"/>
	<path class="st0" d="M665.6,329v13.7l5.5,11.2l2.8,9.5l3.8,6.3l3.4,15.3v16.7L685,422l1.1,11.2l3.8,4.7c0,0-1.4-34.1-2.4-36.3
		c-1-2.2-4.3-18.2-4.3-18.2s-4.9-19.8-5.6-22.1C677.1,359.1,665.6,329,665.6,329z"/>
	<polygon class="st0" points="663.6,329 658.3,327.4 655.1,324.6 654.6,321.7 664,326.3 665.6,329 	"/>
	<path class="st0" d="M624.5,345.2l-6.6-6c0,0,0.2-5.6-1.5-6.7s-5.6-2.6-5.3-3.4s-2.8-7.4-2.8-7.4l-3.6-4.5c0,0-0.8,3.4-2.2,4.5
		s-4.7,2.9-4.7,2.9s0.1-3,1.4-4.7c2.4-3,6.7-5.6,6.7-6.7c0-1.8,1.2-3.9,1.2-3.9S625.9,341.7,624.5,345.2z"/>
	<path class="st12" d="M593.5,367.2l22.7,2.5c0,0,13.4-1.1,13.3-1.3s0.4,4.6,0.4,4.6s-4.9-0.7-6.8,0c-1.8,0.7-29.7,0-29.7,0
		l-1.8,0.3L593.5,367.2z"/>
	<path class="st12" d="M637.8,367.2c0,0,20.3,0.1,22.3,0s13.8-3.8,13.8-3.8l3.8,1.9c0,0-10,4.4-12.1,4.4s-21.8,0.6-21.8,0.6h-7.9
		v-3.4L637.8,367.2z"/>
	<polygon class="st12" points="632.6,401.7 623.3,401.7 597.7,399.5 586.6,395.7 586.6,401.7 607.3,401.9 612.8,403.5 624.7,405.4 
		632.6,405.4 	"/>
	<path class="st12" d="M635.9,401.7l14.7-2.1c0,0,17.4-2.4,19.7-2c2.2,0.4,9.6,0,9.6,0l-14.2,3L654,403c0,0-9.8,2.8-11.7,2.4
		s-6.4,0-6.4,0L635.9,401.7L635.9,401.7z"/>
	<path class="st12" d="M634.5,433.2l-45.8-3.3h-4.8c0,0,38.4,5.6,40.8,5.6c2.4,0,8.6,0,8.6,0L634.5,433.2z"/>
	<path class="st12" d="M685.9,429.9c0,0-15.7,3.7-16.8,2.8c-1.1-0.9-10.4,0.5-14.5,0.1c-4.1-0.3-18.7-1.4-18.7-1.4v4.1
		c0,0,19.7-1.1,22,0s11.2,0,11.2,0l17.1-2.3L685.9,429.9z"/>
	<path class="st12" d="M690.3,465.9c0,0.9-27.6,3.8-29.2,4.2s-29.5-1.1-32.3,0s-24-2.7-25.1-2.1s-24.3-2.1-24.3-2.1l-1.6,2.2l20,2.2
		l25.3,3.9H649h19l18.2-4.2h3.8L690.3,465.9z"/>
	<path class="st12" d="M686.2,515c0,0-19.6,2.4-20.6,2.8s-29.9,0.4-31.6,0s-17.9-3-19.5-2.8s-20.4-3.2-22.7-3.9
		c-2.3-0.7-16.3-6-16.3-6v4.2c0,0,13.1,5.2,16.3,5.8c3.3,0.6,31.5,3.1,31.5,3.1l31.3,3.4c0,0,19.5-1.9,23.2-2.2
		c3.6-0.4,8.5-0.7,8.5-0.7V515H686.2z"/>
	<path class="st12" d="M682.5,555.4l-11.9,2.9c0,0-26.4,3.8-29.4,3.4c-3-0.4-23.3-3.1-23.3-3.1s-24.9-3-26.1-3.1
		c-1.2-0.1-11.2-6.4-11.2-6.4l-0.1,6.3l17.2,5.2c0,0,28.2,3.3,29.3,3.3s27,0,27,0l18.4-2.2h9.4L682.5,555.4z"/>
	<path class="st12" d="M695.5,589.9l-17.7,4.1l-40,2.1l-32-3.1h-11.1l-2.9,4.7h19.4l32.6,2.2c0,0,33-2.2,36.1-2.6
		c3-0.4,15.7-2.4,15.7-2.4l5.4-2.4L695.5,589.9z"/>
	<path class="st0" d="M577.7,480.9c0.6,1.9,1.6,25.6,1.6,25.6l2.7,20.3c0,0,4.1,16.2,0,20.3s-1.4,1.9-1.4,1.9l-5.2-39.8l0.3-13.4
		L577.7,480.9z"/>
	<path class="st0" d="M689.3,579.1c-3.1,3-3.1,5.6-3.1,5.6l13.2,8.5l9.2,9.7l12.7,9.3c0,0,8.6,1.5,5.8,2.5s-14-14.3-15.8-14.7
		S689.3,579.1,689.3,579.1z"/>
	<circle class="st11" cx="618.2" cy="388.1" r="5.1"/>
	<circle class="st11" cx="617.9" cy="407" r="5.1"/>
	<circle class="st11" cx="650.5" cy="406.8" r="5.1"/>
	<circle class="st11" cx="650" cy="385" r="5.1"/>
	<circle class="st11" cx="648.9" cy="362.1" r="5.1"/>
	<path class="st12" d="M349.1,297.7c0,0,11.5,46.5,7.8,55l2,35.6l6.8-2.1c0,0-5.4-33.2-4-38.6c0,0-2.3-37.5-4.3-40.4
		s-3.5-9.4-3.5-9.4h-4.8V297.7z"/>
	<path class="st10" d="M563.6,302.9l-3.9-1.1V300h-10.2l-1.7-2.9l-1.1-1c0,0,11.8-0.9,13.5,0s5,4,5,4L563.6,302.9z"/>
	<path class="st12" d="M382.6,307.1c0,0,18.2,60.4,6.7,71.9h6.1c0,0,4.4-28,2.5-33.9c0,0-7.3-37.3-9.6-38c-2.2-0.7-5.7-2.6-5.7-2.6
		V307.1z"/>
	<path class="st12" d="M428,319.2c0,0,13.4,33.4,4.1,59.8l3.3,2.2c0,0,4.5-21.4,4.5-31c0,0-7.6-32.4-8.6-32.5
		c-0.9-0.1-3.3-1.4-3.3-1.4V319.2z"/>
	<path class="st12" d="M456.2,318.3c0,0,15.4,27.7,0.6,66.7l3.2,1.2c0,0,7.8-25.5,7-31.8c-0.7-6.3-7-37.2-7-37.2L456.2,318.3z"/>
	<path class="st0" d="M479.3,321.3l-5.6,0.4l2.8,7.4v5.6l5.4,10.4l1.9,22.1l2.8,9.3C486.6,376.5,487.1,335.4,479.3,321.3z"/>
	<path class="st0" d="M456.2,382.3l-13.4-3.2h-7l-10.1-5.7c0,0-18.2-1.1-21.2-1.5s-10.4,1.8-12.4,1.6c-2.1-0.1-5,3.8-6.2,4.2
		c-1.1,0.5-6,2-7.1,2.2s-9.3-6.4-9.3-6.4v5.5l3.3,5l16.4-5l50.6,2.2l17,3.8L456.2,382.3z"/>
	<path class="st0" d="M342.8,297.7c0,0-5.2,3.1-6.3,3.9c-1.1,0.7-8.9,3-8.9,3s-1.5-4.8-3.7-3s-8.9,4.3-8.9,4.3l-8.9,2.3
		C306,308.1,316.3,297.1,342.8,297.7z"/>
	<path class="st0" d="M349.1,389.4l-15.3-1.1h-11.5l-8.5-6C313.8,382.3,322.4,403.1,349.1,389.4z"/>
	<path class="st12" d="M901.3,301.9c0,0-7.2,55.3-7.2,61.5c0,6.1,0,19.5,0,19.5L892,383l-2.9-30.5c0,0,2.5-19,2.8-19.8
		s2.2-28.9,2.2-28.9L901.3,301.9z"/>
	<path class="st12" d="M874.3,309.7c0,0-6.9,59.3-6.7,63.6c0.3,4.3,3.3,11.6,3.3,11.6s-5.4,1.2-5.6,1.2c-0.2,0-2-11.8-2-11.8
		s3.8-62.2,5.5-62.7S874.3,309.7,874.3,309.7z"/>
	<path class="st12" d="M843.3,321.7c0,0-5.6,50.4-4.5,55.4l2.2,11c0,0-4.7,2.2-4.2,2s-3.2-11.6-3.5-13s1.4-50.7,3.6-52.5
		C839.2,322.8,843.3,321.7,843.3,321.7z"/>
	<path class="st12" d="M812.9,325.3c0,0-0.6,34.8-2,36s-1.4,1.2-1.4,1.2l1.7,22.4l4.5,10.1c0,0-8.1,1.2-8.4,0s1.4-7.4,0-8.9
		s-5.9-51,0-61.6L812.9,325.3z"/>
	<path class="st0" d="M782.8,388.1c0.8-0.3,14-1.9,14-1.9l4.2,1.9l6.4-1.9h8.4l13.4-1.2l7.3-1.5h18.1l17-3.6c0,0,1.3-3.3,2.8-2.8
		c1.4,0.6,12.1,1.4,14.8,2.8s15.1,0,15.1,0L918,385l10.3,3.1h6.7l3.3-1.9l1.4,3.9l-10.8,3.1c0,0-32.6-10.3-34.8-10.2
		c-2.1,0.1-48.9,3.8-48.9,3.8s-25,9.6-29.5,8.3c-1.4-0.4-18.4,3.2-27.2-1.9l-7.7-5.1L782.8,388.1L782.8,388.1z"/>
	<path class="st0" d="M783,325l-3.1,1.3v-12.1l27.3,10.4h-10.9l-7,6.4c0,0,5.8-5.3,4.2-6.4s-9.2-2.9-9.2-2.9L783,325z"/>
	<polygon class="st0" points="928.4,298.8 939.6,298.8 942.1,304.6 942.1,308.1 948.9,300.8 939.6,294.6 932.1,294.6 	"/>
	<polygon class="st2" points="974.6,349 975.7,364.6 972.7,366.9 970.1,352.2 	"/>
	<polygon class="st2" points="974.3,325.3 979.4,343.9 970.8,329 	"/>
	<path class="st2" d="M977.9,324.6l5.2-2.9l3.7-1.9l6,5.6l4.8-0.3c0,0-1.3-2.8-2-2.4s-3.3,0-3.3,0s-3.9-4.3-4.5-4.3
		s-5.6,0.9-5.6,0.9l-1.3-0.9l-4.2,4.4L977.9,324.6z"/>
	<path class="st2" d="M1005,304.6c0,0,3.2,3.2,3.6,4.8c0,0-0.4,10.2-8.4,13.8c0,0,10.8-3.3,12.8-7.3c0,0,4.8-5.7-2.4-11.3"/>
	<path class="st2" d="M1050.5,331.7l-3.7,3.7c0,0-4.7,4.8-5.4,5c-0.7,0.2-14.3,0-14.3,0s-8-1.9-9.5-2c-1.5-0.2-6.7,0.6-7.3,0.6
		s-5.6,2.8-5.6,2.8l-4.5-0.7c0,0-4.5-4.8-3.9-7.4s1.3-8.6,1.3-8.6s-5,4.3-4.8,6.3s-0.2,7.6,1.5,8.2s5.2,3.7,7.8,3s5.3,0,5.3,0h14.2
		c0,0,8.2,0.4,10.4,1.4c2.2,1,7.4,1,8,0s4.5,1.3,4.5,1.3s5.9-8.8,6.3-10.6c0.4-1.7,0.6-3.7,0.6-3.7L1050.5,331.7z"/>
	<path class="st2" d="M1045.8,350.1c0,0-1.7,6-2.6,5.4s-5.2,6.1-6.5,6.1s2,2.2-2.4,1.7c-4.5-0.6-5.8-3-5.8-3l-1.3-1.3v5.4
		c0,0-9.1-4.1-10.2-4.7s-10.4-2.4-11.2-3.7c-0.7-1.3-3.3-1.3-3.3-1.3l-6.3-0.4c0,0-4.1-4.2-1.5-6.5s-0.9,0-0.9,0s-3,2.4-2.3,4.4
		c0,0,4.8,5,6.1,4.5s5.6,2.8,5.6,2.8l6.7,0.6c0,0,13.6,7.8,25.9,5.4c0,0,13.5-7.9,11.8-13.2l-0.7-3.3L1045.8,350.1z"/>
	<path class="st2" d="M1035.4,373h-3.5l-2.2,2.6v4.1h-7.5c0,0-9-2.4-10.7-3.3s-6.3-0.6-5.6-1.9s-2-0.6-2-0.6l-6.1-6.1l-1.1-1.8v2
		c0,0,3.5,7.9,9.5,9.1s8,2.7,8,2.7s5.2,1.5,7.1,1.5s6.7,0,6.7,0S1036.7,378.4,1035.4,373z"/>
	<path class="st2" d="M1036.3,306c0,0-0.6,5.3-0.7,6s1.5,5.4,1.5,5.4s-4.5,5.8-5.8,5.8s-8.5-0.8-9.2-1.3s-4.8-2.6-4.8-2.6
		s8,5.8,9.9,5.8s6,0.9,8.3-1.9s4.5-3.7,4.5-3.7l3.3-1.1C1043.4,318.3,1035.1,307,1036.3,306z"/>
	<path class="st2" d="M1007.4,325.3l5.1-0.3v13.7l-2.2,0.2C1010.3,339,1011.9,327.2,1007.4,325.3z"/>
	<path class="st2" d="M1007.4,345.2h-2.2c0,0,0,11.1-1.3,9.8c-1.3-1.3,3.5,2.1,3.5,2.1S1008.6,348.1,1007.4,345.2z"/>
	<path class="st2" d="M1011.2,364.4l-5.4,3.2v6.9l0.8,0.9C1006.6,375.4,1008.2,366.6,1011.2,364.4z"/>
	<path class="st8" d="M1001.7,306c0,0,0,9.9-5.2,11.8l-9.3-0.7l-0.4-3.2C986.8,313.9,991.9,303.7,1001.7,306z"/>
	<path class="st8" d="M1006.6,324.6h-7.3l-2.8,1.4v9.3l3.7,5.7l4.5,0.7l5.6-2.8C1010.3,339,1012.5,327.7,1006.6,324.6z"/>
	<path class="st8" d="M1005.3,345.2l-0.4,8.3c0,0,0.6,1.7-0.9,1.5s-8.8,0-8.8,0s-2.4-8.4,2.4-9.8
		C997.6,345.2,1002.7,343.3,1005.3,345.2z"/>
	<path class="st8" d="M1010,364.4c-0.8-1.1-2.5-4.5-2.5-4.5l-4.2-0.4l-3-1.7c0,0-3.7,3.8-3.7,6c0,2.1,0.5,3,0.5,3l6.7,7.1l2,0.6
		v-6.9L1010,364.4z"/>
	<path class="st13" d="M559.5,729.8l13.4,9.5h18.9c0,0-13.8,7.8-16.3,7.3c0,0-14.8-2.8-18.2-8.4
		C557.3,738.2,562.3,732.1,559.5,729.8z"/>
	<path class="st13" d="M686.2,738.2l8.4,2.8h12.3l-10.3,3.3l-18.7,2.3h-5l9.7-8.4h-9.7c0,0,3.9-12.9,3.9-14.5
		c0-1.7,5.7,11.5,5.7,11.5L686.2,738.2z"/>
	<path class="st13" d="M798.4,617.1h7.3l3.9,9.5l-5.6,25.1l-8.9,9.5l7.3,3.3c0,0,17.4-35.4,16.8-56.8l-2.5-5.4L798.4,617.1z"/>
	<path class="st13" d="M542.5,626.4l-26,24.2l-8.3,6.1l-7.9,15.6l-10.8,13.9l-6.6-9.4c0,0,12-16.7,19.8-22.9l13.1-12.3L542.5,626.4z
		"/>
	<path class="st13" d="M534.9,770.6v7.3v20.7l7.5,3.3l-4,8l-4.8,8.6l-4.1-10.8C529.5,807.6,529.9,779.5,534.9,770.6z"/>
	<polygon class="st13" points="700.9,818.4 706.9,815.8 716.3,808 706.9,830.3 	"/>
	<path class="st13" d="M750.9,743.8l-10.6,7.3l2.8,5l-8.8,9.5c0,0,9,10.2,8.3,12.1c-0.3,0.7-1.5,4-3,7.9c-2.4,6.1-5.3,13.6-5.3,13.6
		s-6.7,19.7-6.7,19.3s-5.1,0-5.1,0l3.5,9.3l8.3-6.6l17.7-70.5l3.1-8.8L750.9,743.8z"/>
	<polygon class="st13" points="638.4,656.2 642.1,703.1 642.1,713.6 637.7,704.7 637.7,697.5 	"/>
	<path class="st11" d="M552.8,273c0,0-15.1,15.4-5,24.1c0,0,7.1,4.4,13.2,0c0,0,2.5,15.3,16.4,4.5c0,0-3,19.9,9,11.8
		c0,0,3.9,13.5,8.3,10.9c0,0,10-9.3,11.1-12.8L600,297C600,297,555.6,283.8,552.8,273z"/>
	<polygon points="720.6,609.9 672.8,623 663.3,623.8 663.3,641.7 691.9,638.9 734.3,633 757.7,623 732.1,614.8 	"/>
	<polygon class="st14" points="665.6,617.7 654,614.8 614.5,614.8 604.7,620.4 604.7,647.2 619.6,653.9 655.6,651.7 665.6,645 
		665.6,620.4 	"/>
	<path class="st15" d="M461.7,210v31.6c0,0,3.3,34.6,18.5,41.7c0,0,11.8,4.1,17.4,3.4c0,0,9.9-0.7,15-1.2c1.4-0.2,2.5-0.3,2.8-0.4
		c1.5-0.6,7.4-4.6,7.4-4.6l7.8,6.3l6,2.7h7.7l2.9-9l5.5-7.4l-10.3-15c0,0-7.3-18.6-5.9-23.8c0,0-9.3-15.6-13-17.5l-18.6-8.9
		l-3.7-3.7c0,0,30.6-35.7,10.4-59.2c0,0-14-29-44.6-29c0,0-31.3,5.6-29.4,32.4l-5.6,4.5c0,0-51,19,1.9,58.4c0,0-1.5-17.9,6-25.3
		l2.9,2.2C442.8,188.1,440.7,201.8,461.7,210z"/>
	<polygon class="st3" points="492.5,286.5 493.6,294.6 497.3,298.8 499.5,298.8 499.5,309.3 499.5,314.2 505.1,314.2 505.9,308.4 
		505.9,298.8 509.5,297 509.5,291.1 509.5,285.8 501,286.4 	"/>
	<path class="st15" d="M513.2,287.5c0,0,7.3,4.5,8.1,5c0.8,0.6,4.2,3.5,4.2,3.5l-2,6.9l-4.9,1.7l5.5,5.6l0.2-5.6l6.7-3.2l2.2,7.1
		l3.1-8.5l4.3-1.1v6.9l4.5-8.1l-8.5-3.1l-7.5-3.5l1.5-4.4l-8.3-7.6l-7,5.9l-2.8,0.4L513.2,287.5z"/>
	<polygon class="st3" points="526.4,303.6 523.5,302.9 518.6,304.6 524.1,310.1 524.3,304.6 	"/>
	<polygon class="st3" points="531.1,301.3 536.4,300 533.3,308.4 	"/>
	<polyline class="st3" points="540.6,298.9 545.1,297.7 540.6,305.8 540.6,300 	"/>
	<path class="st16" d="M494.9,206.2l-14.7,2.4l-18.5,1.5v11.3c0,0,4.6,0.6,7.4,0s7.1,1.1,11.1-3.9c0,0,5.4,3.4,9.4-3.5
		c0,0,5.8,3.2,8,0c0,0,4.8,0.9,6.1-2.6l1.3-3.5l-3.7-3.7L494.9,206.2z"/>
	<path class="st16" d="M461.7,233.8c0,0,0,0.3,0,0.7c0,1.5,0.2,4.7,2.3,4.3c2.7-0.4,7.4-1.8,9.5-5c0,0,3.4,5,5.3,6.4
		c0.4,0.3,0.7,0.4,0.9,0.4c1.2-0.3,5.4-2.3,4.9-5.9c0-0.3-0.1-0.6-0.2-0.9c-1.5-4.2,0.2,0.6,0.2,0.6s5.4,3.5,6.2,1.9
		c0,0,3.1-2.1,2.5-4.9c0,0,5.2,0.4,5.3-1.3l1.3-3.3v-1.5c0,0-32.8,9.1-34,7.7c-1.3-1.4-3.9-0.7-3.9-0.7v1.5H461.7z"/>
	<path class="st16" d="M462.3,246.7c0,0,3.1,7.7,4.1,8s6,0.3,6.1,0s3.9-5,3.9-5s6.8,5.7,8,5.2c1.1-0.5,9.2,0.9,9.3-1.2
		c0.1-2.1,0-5,0-5s4.5,3.2,5.9,1.4s4.5-1.8,4.5-1.8l-0.7-4.3c0,0-9.8,3.1-11.6,2.9c-1.8-0.1-19.3,1.4-19.4,0.7
		C472.3,246.9,462.3,246.7,462.3,246.7z"/>
	<path class="st17" d="M541.4,257.2l-19.3-6.1l-10.7-8.4v-4.9l10.9,8c0,0,13.1,7.3,13.8,6.6s0.6-4.8,0.6-4.8V244L541.4,257.2z"/>
	<path class="st17" d="M517.8,254.3c0,0,16.7,17.3,24.4,19.3c0,0,5.4,2.8,7.3,2v2l-4.2,7.2c0,0-2.2-6.7-4.7-7.3
		c0,0-17.4-8.8-19.9-13C518.2,260.2,516.1,258.2,517.8,254.3z"/>
	<path class="st17" d="M506.1,211.2l2.9,3.5l-4.9,1.4c0,0-5.6,3.7-6,5.6s0,3.7,0,3.7s-2.5,11.4,2.9,18.7c0,0,18.1,33.3,21.4,35.2
		c3.2,1.8,8.2,8.8,11.6,9.1c3.4,0.3,6.6,1.2,6.6,1.2l0.7-2.3l-7.4-0.4c0,0-8.2-6.7-10.3-9.3s-11-20.4-11.1-21.3s-5.4-9.2-5.1-10.5
		s-4.9-12.6-4-15.6c0.8-3.1-1.3-6.6-0.3-8.3c1-1.6,1.9-4.4,1.9-4.4l5.8,0.4l9.9,5.3l5.7,3.8c0,0-2.9-5.6-1.9-7s-2.9-3.9-2.9-3.9
		l-15.3-7.4L506.1,211.2z"/>
	<circle class="st18" cx="473.7" cy="156.7" r="12.2"/>
	<circle cx="477.3" cy="160.8" r="7"/>
	<path class="st14" d="M437.6,146.9c0,0.5,0,0.9,0.1,1.4l-5.6,4.5c0,0-51,19,1.9,58.4c0,0-1.5-17.9,6-25.3l2.9,2.2l-0.1,0.9
		c24.9-0.6,14.2-24.5,14.2-24.5c-1.3-1.7-10.7-3.6-10.7-3.6c4.7-4.7-8.6-12.6-8.6-12.6"/>
	<polygon class="st19" points="600,298.2 592.4,297.7 583.4,293.8 573.8,290.2 561.1,283.9 553.4,278.8 550.9,275.5 552.8,273.8 
		597.7,296.3 599.5,296 	"/>
	<polygon class="st19" points="684.8,273.8 687.3,275.6 677.1,284.7 667.6,289.4 660.1,293.2 657.6,294.6 662.2,288.1 	"/>
	<path class="st2" d="M445.8,173.1c0,0,0.7,12-5,12.4C440.8,185.5,446.3,181.3,445.8,173.1z"/>
	<path d="M437.6,147.6c0,0-0.8-26.6,26.1-30.8c0,0,22.8-9.3,44.1,21.9v-3.3l-2.8-3.8V124c0,0,8-1.3,7.8,2c-0.2,3.3,0,0.9,0,0.9
		s1.4,3.6,0,4.7c-1.4,1.1-2.4,2.5-2.4,2.5l0.9,1.6l2.1-2.3l2.2-4c0,0,9-4.7,8.1,0.9c0,0,1.6,6.9-3.3,6.7c-4.9-0.2-7.8,0.4-7.8,0.4
		l1.8,2.9l-1.6,2.2l-1.6,0.5l-2.3-2.4l-0.6,0.8c0,0-37.6-12.1-70.1,6.3L437.6,147.6L437.6,147.6z"/>
	<path class="st1" d="M600,297c0,0-41.8-11.6-47.2-21.7c0,0-21.2-29.6-16.4-44.9s0.3-1.5,0.3-1.5s-14.4-7.9-3.3-23.2l7.3-2.9
		c0,0,31-20.1,42.7-24.4c0,0,49.3-8.4,81.5-0.7c0,0,40,12.3,42.6,17.6l6.9,5.6c0,0,2.6,18.4-1,22.5c0,0-4.1,7.4-5.1,6.9l1,2.9
		c0,0,4.1,31.4-48.2,58.2c0,0-21.4,9.8-25,8.8c0,0-9.4-0.3-12-5.4c0,0-9.6,8.1-14.5,7.4L600,297z"/>
	<circle class="st18" cx="584.8" cy="211.1" r="12.9"/>
	<circle cx="588.6" cy="215.5" r="7.4"/>
	<circle class="st18" cx="655.6" cy="209.1" r="12.9"/>
	<circle cx="651.8" cy="213.5" r="7.4"/>
	<path d="M603.2,185.5l-3.2,10.7c0,0-20.2-2.5-28,2v-9l29.7-3.7H603.2z"/>
	<path d="M639,183.5l3.2,10.7c0,0,20.2-2.5,28,2v-9l-29.7-3.7H639z"/>
	<path class="st2" d="M630,190.8c0,0-2.3,18.3-1.3,20.4c0,0,14,17.1-1.2,22.5c0,0-11.9,5.1-14.4-5.6l1.4-1.8c0,0,4.6,6.1,5.1,5.6
		s8.4,0.3,9.1-1c0.7-1.2,5.9-3.5,5-7c-0.1-0.3-0.2-0.6-0.4-0.9c-2.3-4-5.7-11.8-5.7-11.8l2.2-21.3"/>
	<path class="st2" d="M614.5,280.7c0,0,16.5-8,25.8,5c0,0-1.9,2.2-2.4,1.3c-0.6-0.9-6.9-5.8-9.1-5.4h-12.5L614.5,280.7z"/>
	<path class="st2" d="M541.4,209.1l1.1,3.2c0,0-1.8,3-1.9,4.5l0.9,4.1l-2.7-1.4c0,0-1.7-1.7,0-4C538.8,215.5,541.9,211,541.4,209.1z
		"/>
	<path class="st2" d="M545.1,224c0,0,0.8,7.1-0.8,8c0,0-5.8,0.2-6.9-0.7s0-2.7,0-2.7s2.9,1.7,3.9,0.3s0.7-4.6,1.5-4.9
		C542.8,224,543.9,223.2,545.1,224z"/>
	<path class="st2" d="M635.3,262.5c0,0-3.2,4.9-9.9,4.3h-7c0,0-4.9-1.6-5.3-4.4c0,0,9,1.8,11.1,1.3
		C624.2,263.8,634.4,263.5,635.3,262.5z"/>
	<path class="st2" d="M704.5,211.9c0.8,0.4,4.2,2.5,3.8,3.6s0,4.3,0,4.3l-2.8,3.8l-2.7-0.7c0,0,3.8-3.1,3.3-4.2
		c-0.4-1.1-1.1-3.7-1.1-3.7S703.6,211.5,704.5,211.9z"/>
	<path class="st2" d="M706.3,207c0,0,4.2,1.5,4,2.1s0,2,0,2h-1.9l-2.1-2.7V207z"/>
	<path class="st2" d="M701.8,221c0,0-0.8,2.4,0,3.1s3.6,4.3,3.8,3.8s2.8,0.7,2.8,0.7s-1.8,1.5-2.1,1.7c-0.3,0.1-2.3-0.7-2.3-0.7
		l-2.6-2l-3.2-3.2l1-4L701.8,221z"/>
	<path class="st10" d="M594.7,237.8l12.8,7.8c0,0-10.8-1.6-19.9,3.8c-9.1,5.4-15.6,13.1-15.6,13.1l-5.2,2.2c0,0-11.7,1.6-12.8-10.4
		c0,0,2-12,7-13.7c0,0-4.7,13.6-2.8,14.3c0,0,5,9.7,12.8,2.3C570.9,257.2,591.4,238.4,594.7,237.8z"/>
	<path class="st10" d="M651.6,237.8l-12.8,7.8c0,0,10.8-1.6,19.9,3.8c9.1,5.4,15.6,13.1,15.6,13.1l5.2,2.2c0,0,11.7,1.6,12.8-10.4
		c0,0-2-12-7-13.7c0,0,4.7,13.6,2.8,14.3c0,0-5,9.7-12.8,2.3C675.4,257.2,654.9,238.4,651.6,237.8z"/>
	<polygon class="st10" points="555.4,194 555.4,220.2 549.4,223.7 541.4,211.9 540.6,202.6 	"/>
	<path class="st10" d="M680.9,183.5l9.1,12.7l-3.2,23.9l10.3,1.8c0,0,3.7-16.8,3.8-17.9s3.7-3.9,3.7-3.9l8.2,2.5v-3.2l-9.8-7.6
		L680.9,183.5z"/>
	<path class="st20" d="M598.8,251.3c0,0,21.6,7.7,55.7,0l2.2-1.8v4.8c0,0-26.4,5-32.1,4.2c0,0-26.1-3.6-26.9-4.2c-0.8-0.6-3-3-3-3
		l3-1.8L598.8,251.3z"/>
	<path class="st2" d="M622.1,235.9l-1.2,5.8c0,0,4.8,3.3,6.5,2.2l2.7-2.2c0,0,4.1-3.4,2.6-4.2c-1.4-0.8-2.6-3.5-2.6-3.5l2.6-1
		l2.6,5.5c0,0-0.6,8.1-7.9,7.8c0,0-6.3,0.3-9.5-4.7l0.3-5.8L622.1,235.9L622.1,235.9z"/>
	<path class="st21" d="M622.1,234.9l-1.2,5.8c0,0,4.8,3.3,6.5,2.2l2.7-2.2c0,0,4.1-3.4,2.6-4.2c-1.4-0.8-2.6-3.5-2.6-3.5l2.6-1
		l2.6,5.5c0,0-0.6,8.1-7.9,7.8c0,0-6.3,0.3-9.5-4.7l0.3-5.8L622.1,234.9L622.1,234.9z"/>
	<path class="st2" d="M633.3,316.3c0,0,2.7,6.8-4.6,6.3l1.3,2.8c0,0,6.1-2.2,5.9-4.5L633.3,316.3z"/>
	<path class="st10" d="M439.9,294.6"/>
	<polygon class="st19" points="696.6,301.6 693.9,297.7 692.4,297.8 695.2,301.6 695.6,307.1 	"/>
	<path class="st19" d="M674.9,302.9l2.1,5.2l0.5,6.9l-0.6,2.2c0,0-1.6,0-1.3-0.9c0.3-1,0.7-3.5,0.6-4.8
		C676.1,310.1,674.9,302.9,674.9,302.9z"/>
	<path class="st19" d="M701.6,284.2c-0.4-0.6,5.3,4.7,3.8,11.8c-1.3,1-0.8,1.7-0.8,1.7S703.6,287.9,701.6,284.2z"/>
	<path class="st19" d="M586.6,307.1l-1,4.3l0.5,2.8l1.4,4.1l1.1-1.1C588.7,317.2,585.1,314.3,586.6,307.1z"/>
	<path class="st19" d="M578.1,297.8c0,0-1.2,10.4-0.8,12.2c0.4,1.8,2,2.7,2,2.7l-1.1-4.3v-5.6L578.1,297.8z"/>
	<path class="st19" d="M559.5,289.4l1.5,7.6c0,0,2.2,6.8,4,7.2c1.8,0.3,2.7-1.3,2.7-1.3S563.4,304.4,559.5,289.4z"/>
	<polygon class="st2" points="309.9,315.3 309.9,318.3 316.7,323.1 319.5,327.4 323,324.6 	"/>
	<polygon class="st2" points="315.9,332.9 323,341.1 320.1,343 318.6,339.3 	"/>
	<polygon class="st2" points="314.8,349.8 321.2,357.5 316.8,361.8 317.3,356.3 	"/>
	<path class="st2" d="M315.9,368.5v7.3C315.9,375.8,321.2,373.6,315.9,368.5z"/>
	<polygon class="st2" points="938.7,313.9 941.3,315.6 937.2,320 934,319.1 	"/>
	<path class="st2" d="M940.8,328.3l1.8,2.7l-3.9,3.7l-2.4,1.9l-1.6,3.1l-1.7-1.3c0,0,1.4-4.9,2.4-5.2s1-0.4,1-0.4
		S939.9,330.5,940.8,328.3z"/>
	<polygon class="st2" points="940.5,351.7 932.9,359 934,364.7 930.7,358.1 	"/>
	<path d="M600,936.2v11.9l4.7,10.6c0,0-9.7,6.1-9.6,6.7c0.1,0.6-19.7,6.1-19.7,6.1l-7.3,5.2h21.3l23.3-4.7l2.5-13.7l-5.6-16.8
		L600,936.2z"/>
	<polygon points="597.9,872.1 590.5,883.1 586.6,897.3 584.1,912.9 585.4,920.4 591,907.1 591.8,895.2 	"/>
	<path class="st2" d="M611.2,177.1c0,0-19.7,4.5-21,4.1s-15.6,4.5-16.2,4.3c-0.6-0.2-5.3,0-5.3,0l10.6-6.2l18.4-3.7L611.2,177.1z"/>
	<polygon points="552,890.5 552.6,891.3 560.1,902.9 560.1,918.5 557.3,920.4 556.7,911.8 	"/>
	<polygon points="538.3,936.2 534.4,951.1 536.4,964 538.3,970.1 539.7,973.5 529.5,969.9 527.1,954.1 536,937.3 	"/>
	<polygon points="607.7,827.7 568.1,825.8 565.3,827.7 604.7,830.3 613.6,827.7 613.6,819.1 	"/>
	<polygon points="536,819.1 552,823.2 547.8,819.1 	"/>
	<polygon class="st10" points="583.9,607.8 561,594.8 565.5,591.9 586,603.7 	"/>
	<polygon class="st10" points="568.8,589.9 588.1,602.3 589.9,598.7 573.5,587.3 	"/>
	<polygon class="st10" points="577.7,585.2 591.8,596.1 593.3,593.7 580.5,584 	"/>
	<path class="st22" d="M542.5,626.4c0,0-44.7,26.2-58.2,50.4l31.7-40.7c0,0-14.2-3.6-17,3.6c0,0,6.7-10,1.4-10.3
		c0,0-17.3,0-20.1,1.1l46.9-14.1L542.5,626.4z"/>
	<path class="st22" d="M451.6,649.1c0,0-41.6,37.8-4.2,86C447.4,735.1,398.5,699,451.6,649.1z"/>
	<path class="st23" d="M702.7,894.8c-1.1,0.6-3.9,5-3.9,5l3.9,8.1l2-2.4v-7.3L702.7,894.8z"/>
	<path class="st23" d="M701.7,866.3l-0.8,12.3l-2.1,11.9l-2.5,7.4l1.7,7.6l3,6.3l0.8,3.9l-0.8,10.9c0,0,0.7,15.1,0,16.2
		s-1.8,12.3-2.1,13.7s2.5,6.9,0,10.9c-2.5,3.9-2.5,6.1-2.5,6.1l1.1-12l-1.1-8.1l2.5-8.7c0,0,0.4-10.6,0.2-12s0-15.6,0-15.6
		l-2.7-11.6l-2.2-9.2l3.8-14.9L701.7,866.3z"/>
	<path class="st23" d="M695.7,866.3l-0.8,12.3l-2.1,11.9l-2.5,7.4l1.7,7.6l3,6.3l0.8,3.9l-0.8,10.9c0,0,0.7,15.1,0,16.2
		s-1.8,12.3-2.1,13.7s2.5,6.9,0,10.9c-2.5,3.9-2.5,6.1-2.5,6.1l1.1-12l-1.1-8.1l2.5-8.7c0,0,0.4-10.6,0.2-12s0-15.6,0-15.6
		l-2.7-11.6l-2.2-9.2l3.8-14.9L695.7,866.3z"/>
	<path class="st23" d="M689.7,866.3l-0.8,12.3l-2.1,11.9l-2.5,7.4l1.7,7.6l3,6.3l0.8,3.9l-0.8,10.9c0,0,0.7,15.1,0,16.2
		s-1.8,12.3-2.1,13.7s2.5,6.9,0,10.9c-2.5,3.9-2.5,6.1-2.5,6.1l1.1-12l-1.1-8.1l2.5-8.7c0,0,0.4-10.6,0.2-12s0-15.6,0-15.6
		l-2.7-11.6l-2.2-9.2l3.8-14.9L689.7,866.3z"/>
	<path class="st23" d="M683.7,866.3l-0.8,12.3l-2.1,11.9l-2.5,7.4l1.7,7.6l3,6.3l0.8,3.9l-0.8,10.9c0,0,0.7,15.1,0,16.2
		s-1.8,12.3-2.1,13.7s2.5,6.9,0,10.9c-2.5,3.9-2.5,6.1-2.5,6.1l1.1-12l-1.1-8.1l2.5-8.7c0,0,0.4-10.6,0.2-12s0-15.6,0-15.6
		l-2.7-11.6l-2.2-9.2l3.8-14.9L683.7,866.3z"/>
	<polygon class="st23" points="676,912.9 677.8,929.4 676,939.1 672.8,942.8 671.4,932.2 672.8,915.4 	"/>
	<polygon class="st23" points="710.5,830.3 701.7,854.1 700.9,857.5 695.8,855.2 701.7,841.8 	"/>
	<polygon class="st23" points="698.8,824.7 697.8,838.9 691.8,848.5 691.8,857.5 688,855.6 689.7,843.9 695.8,832.2 695.8,821.2 	
		"/>
	<polygon class="st23" points="688,830.3 682,839.3 682,850.4 	"/>
	<polygon class="st23" points="672.8,822.7 677.8,830.3 677.8,836.6 677.8,845.6 677.8,855.6 672.8,837.4 669.1,821.2 	"/>
	<polygon class="st23" points="665.3,832.9 669.1,843.9 671.4,843.9 	"/>
	<path class="st23" d="M677.8,862.3l-1.8,13.8v7.8c0,0,2.7-17.9,3.8-19.3c1.1-1.5,3.8-5.6,3.8-5.6L677.8,862.3z"/>
	<polygon class="st23" points="689.8,860.4 695.8,864.2 692.8,864.2 	"/>
	<polygon class="st23" points="674.6,951.2 674.6,962.4 676,967.6 	"/>
	<polygon class="st24" points="660.3,616.4 657.2,645 648.9,652.1 655.6,651.7 665.6,645 663.3,626.6 	"/>
	<polygon class="st24" points="573.5,604.8 595.1,616.4 590.6,623.8 581.1,620.4 589.9,620.4 	"/>
	<path class="st24" d="M631.9,231.1l2.6,5l0.5,2.6c0,0-1.2,5.2-4.1,6l-1.7-1l2.9-2.8c0,0,2.1-3.2,1.7-3.4c-0.4-0.3-1.7-3.1-1.7-3.1
		l-1.9-2L631.9,231.1z"/>
	<path class="st25" d="M546.1,623.8c0,0-72.7,36.3-72.4,87.1c0,0,3.7,39.6,22.1,59.7c0,0-108.1-46.9-56-109.4
		c0,0,17.8-22.5,43.1-31.6l53-15.3l10.1-6.5L536,595c0,0-1.1-9.7,10.1-8l14.9,7.8c0,0,17-11.2,22.8-11.7c0,0,13.8,5.3,10.9,10
		s-10.8,14.7-10.8,14.7s11.5,6.4,10.8,12.6c0,0-6.6,5.7-8.1,6.2c-1.5,0.6-21-11.8-21-11.8L546.1,623.8z"/>
	<path class="st14" d="M583.9,607.8c0,0,11.5,6.4,10.8,12.6c0,0-6.6,5.7-8.1,6.2c-1,0.4-10.6-5.4-16.4-9l-25.1-11.1L536,595
		c0,0-1.1-9.7,10.1-8l14.9,7.8c0,0,17-11.2,22.8-11.7c0,0,13.8,5.3,10.9,10S583.9,607.8,583.9,607.8"/>
	<polygon class="st2" points="633.9,173.1 674.9,178.2 684.1,185.5 682.1,187.1 654.6,179 636.1,175.6 	"/>
	<path d="M528.8,208.1c0,0,19.6-80.2,95.3-84.9c0,0,75.6-8.4,91,73.1l3.7-2.2h5c0,0,8.9,6.3,8.4,8.7l4.2-0.1c0,0,3.9,1.5,5.6,3.4
		s3.3,2,3.3,2l4.5,3.8l7.9,0.5c0,0-13.2,10-17.3,7.8c0,0-4.6-5.3-6.1-5.1s-5.7,0.5-5.7,0.5l-1.4,7.4c0,0,4.7,7.4,3.6,9
		s-5.9,6.5-7.8,7.1c-2,0.7-5,1.2-5.6-4.3c0,0,3.1-10.9,5-11.9l-5-7.4l-2.3-2.7v-13.2c0,0-49-29.4-91.9-24s-41.3,4.7-42.1,5
		s-42,22.6-43,23S528.8,208.1,528.8,208.1z"/>
	<polygon points="604.4,631.2 590.6,623.8 565.6,614.8 546.1,607.8 536,614.2 527.1,616.4 552.2,631.2 580.5,641.7 609.2,645 	"/>
</g>
<g id="skeleton_1_">
	<polygon class="st26" points="486.6,328.3 508.3,626 757.7,625.8 769.3,320.2 	"/>
	<polyline class="st26" points="486.6,328.3 415.1,349.5 282.6,354.6 	"/>
	<polyline class="st26" points="769.3,320.2 836.4,349.1 962.8,348.9 	"/>
	<polyline class="st26" points="508.3,626 575.5,725.5 575.5,933.5 	"/>
	<polyline class="st26" points="757.7,625.8 685.5,725.5 685.5,933.5 	"/>
	<polyline class="st26" points="620.9,172 581.4,174.5 556.4,184 539.2,198.1 534.3,207.4 532.7,219.1 532.7,228.6 534.3,250.3 
		547.8,270.3 571,282.8 591,289.5 620.9,292.7 650.4,289.9 670.4,283.2 693.6,270.6 707.1,250.6 708.7,229 708.7,219.4 707.1,207.7 
		702.2,198.5 685.8,184 660.6,174.5 620.9,172 	"/>
	<polyline class="st26" points="549,208.9 557,205.2 569.4,204.2 584,204.2 603.5,208.2 	"/>
	<polygon class="st26" points="561.4,217.1 571.8,213.4 584.4,213.4 594.7,217.6 584.4,218.6 571.8,219.4 	"/>
	<polyline class="st26" points="597.9,235.2 608.3,235.2 619.3,236 619.3,230.7 619.3,223.6 619.3,218.1 619.3,212.3 	"/>
	<polyline class="st26" points="691.8,208.5 683.8,205.6 671.2,204.1 656.6,204.5 636.7,207.7 	"/>
	<polygon class="st26" points="680,217.1 669.4,213.4 656.8,213.4 646.7,217.6 656.8,218.6 669.4,219.4 	"/>
	<polyline class="st26" points="640.1,235.2 630.1,235.2 619.3,236 	"/>
	<polygon class="st26" points="586,257.3 599.7,253.9 612.7,252.8 620.9,253.7 629.3,252.8 642.1,253.9 655.8,257.3 643.1,263.6 
		628.9,266.4 620.9,266.9 612.7,266.4 598.7,263.6 	"/>
	<polyline class="st26" points="586,257.3 593.1,257.6 613.1,256.8 620.9,257.3 628.9,256.8 648.6,257.6 655.8,257.3 	"/>
	<polyline class="st26" points="586,257.3 593.1,257.6 613.1,259.7 620.9,260.5 628.9,259.7 648.6,257.6 655.8,257.3 	"/>
	<circle id="rightShoulder" cx="488.5" cy="328.3" r="8.2"/>
	<circle id="rightElbow" cx="415.4" cy="349.3" r="8.2"/>
	<circle id="rightWrist" cx="285.5" cy="352.3" r="8.2"/>
	<circle id="rightHip" cx="511.2" cy="626.6" r="8.2"/>
	<circle id="rightKnee" cx="575.6" cy="725.2" r="8.2"/>
	<circle id="rightAnkle" cx="575.6" cy="933.2" r="8.2"/>
	<circle id="leftElbow" cx="836.2" cy="348.9" r="8.2"/>
	<circle id="leftWrist" cx="967" cy="347.9" r="8.2"/>
	<circle id="leftHip" cx="757.7" cy="625.8" r="8.2"/>
	<circle id="leftKnee" cx="685.6" cy="725.2" r="8.2"/>
	<circle id="leftAnkle" cx="685.6" cy="933.2" r="8.2"/>
	<ellipse id="rightEye0" cx="561.4" cy="217.1" rx="1.6" ry="0.8"/>
	<ellipse id="rightBrow1" cx="557" cy="205.2" rx="1.6" ry="0.8"/>
	<ellipse id="rightBrow4" cx="603.5" cy="208.2" rx="1.6" ry="0.8"/>
	<ellipse id="nose1" cx="619.3" cy="218.1" rx="1.6" ry="0.8"/>
	<ellipse id="rightBrow3" cx="584" cy="204.2" rx="1.6" ry="0.8"/>
	<ellipse id="rightEye1" cx="571.8" cy="213.4" rx="1.6" ry="0.8"/>
	<ellipse id="rightBrow0" cx="549" cy="208.9" rx="1.6" ry="0.8"/>
	<ellipse id="rightBrow2" cx="569.4" cy="204.2" rx="1.6" ry="0.8"/>
	<ellipse id="rightEye5" cx="571.8" cy="219.4" rx="1.6" ry="0.8"/>
	<ellipse id="rightEye2" cx="584.4" cy="213.4" rx="1.6" ry="0.8"/>
	<ellipse id="rightEye3" cx="594.7" cy="217.6" rx="1.6" ry="0.8"/>
	<ellipse id="nose0" cx="619.3" cy="212.3" rx="1.6" ry="0.8"/>
	<ellipse id="nose3" cx="619.3" cy="230.7" rx="1.6" ry="0.8"/>
	<ellipse id="rightNose0" cx="597.9" cy="235.2" rx="1.6" ry="0.8"/>
	<ellipse id="rightMouthCorner" cx="586" cy="257.3" rx="1.6" ry="0.8"/>
	<ellipse id="rightNose1" cx="608.3" cy="235.2" rx="1.6" ry="0.8"/>
	<ellipse id="rightUpperLipTop0" cx="599.7" cy="253.9" rx="1.6" ry="0.8"/>
	<ellipse id="nose2" cx="619.3" cy="223.6" rx="1.6" ry="0.8"/>
	<ellipse id="nose4" cx="619.3" cy="236" rx="1.6" ry="0.8"/>
	<ellipse id="upperLipTopMid" cx="620.9" cy="253.7" rx="1.6" ry="0.8"/>
	<ellipse id="rightUpperLipTop1" cx="612.7" cy="252.8" rx="1.6" ry="0.8"/>
	<path id="rightMiddleLip" d="M593.1,256.8c0.8,0,1.6,0.4,1.6,0.8s-0.8,0.8-1.6,0.8s-1.6-0.4-1.6-0.8S592.3,256.8,593.1,256.8z"/>
	<ellipse id="lowerLipBottomMid" cx="620.9" cy="266.9" rx="1.6" ry="0.8"/>
	<ellipse id="upperLipBottomMid" cx="620.9" cy="257.3" rx="1.6" ry="0.8"/>
	<ellipse id="lowerLipTopMid" cx="620.9" cy="260.4" rx="1.6" ry="0.8"/>
	<ellipse id="rightUpperLipBottom1" cx="613.1" cy="256.8" rx="1.6" ry="0.8"/>
	<ellipse id="rightLowerLipTop0" cx="613.1" cy="259.7" rx="1.6" ry="0.8"/>
	<ellipse id="rightLowerLipBottom1" cx="612.7" cy="266.4" rx="1.6" ry="0.8"/>
	<ellipse id="rightLowerLipBottom0" cx="598.7" cy="263.6" rx="1.6" ry="0.8"/>
	<ellipse id="rightEye4" cx="584.4" cy="218.6" rx="1.6" ry="0.8"/>
	<ellipse id="jawMid" cx="620.9" cy="292.7" rx="1.6" ry="0.8"/>
	<ellipse id="rightJaw7" cx="591" cy="289.5" rx="1.6" ry="0.8"/>
	<ellipse id="rightJaw6" cx="571" cy="282.8" rx="1.6" ry="0.8"/>
	<ellipse id="rightJaw5" cx="547.8" cy="270.3" rx="1.6" ry="0.8"/>
	<ellipse id="rightJaw4" cx="534.3" cy="250.3" rx="1.6" ry="0.8"/>
	<ellipse id="rightJaw3" cx="532.7" cy="228.6" rx="1.6" ry="0.8"/>
	<ellipse id="rightJaw2" cx="532.7" cy="219.1" rx="1.6" ry="0.8"/>
	<ellipse id="rightJaw1" cx="534.3" cy="207.4" rx="1.6" ry="0.8"/>
	<ellipse id="rightJaw0" cx="539.2" cy="198.1" rx="1.6" ry="0.8"/>
	<ellipse id="topMid" cx="621.3" cy="172" rx="1.6" ry="0.8"/>
	<ellipse id="leftTop0" cx="660.6" cy="174.5" rx="1.6" ry="0.8"/>
	<ellipse id="leftTop1" cx="685.8" cy="184" rx="1.6" ry="0.8"/>
	<ellipse id="leftEye0" cx="680.4" cy="217.1" rx="1.6" ry="0.8"/>
	<ellipse id="leftBrow1" cx="684.2" cy="205.6" rx="1.6" ry="0.8"/>
	<ellipse id="leftBrow4" cx="637.1" cy="207.7" rx="1.6" ry="0.8"/>
	<ellipse id="leftBrow3" cx="657" cy="204.5" rx="1.6" ry="0.8"/>
	<ellipse id="leftEye1" cx="670" cy="213.4" rx="1.6" ry="0.8"/>
	<ellipse id="leftBrow0" cx="692.2" cy="208.5" rx="1.6" ry="0.8"/>
	<ellipse id="leftBrow2" cx="671.6" cy="204.1" rx="1.6" ry="0.8"/>
	<ellipse id="leftEye5" cx="670" cy="219.4" rx="1.6" ry="0.8"/>
	<ellipse id="leftEye2" cx="657.4" cy="213.4" rx="1.6" ry="0.8"/>
	<ellipse id="leftEye3" cx="647" cy="217.6" rx="1.6" ry="0.8"/>
	<ellipse id="leftNose0" cx="640.1" cy="235.2" rx="1.6" ry="0.8"/>
	<ellipse id="leftMouthCorner" cx="655.8" cy="257.3" rx="1.6" ry="0.8"/>
	<ellipse id="leftNose1" cx="630.5" cy="235.2" rx="1.6" ry="0.8"/>
	<ellipse id="leftUpperLipTop0" cx="642.1" cy="253.9" rx="1.6" ry="0.8"/>
	<ellipse id="leftUpperLipTop1" cx="629.3" cy="252.8" rx="1.6" ry="0.8"/>
	<path id="leftMiddleLip" d="M648.6,256.8c0.8,0,1.6,0.4,1.6,0.8s-0.8,0.8-1.6,0.8s-1.6-0.4-1.6-0.8S647.8,256.8,648.6,256.8z"/>
	<ellipse id="leftUpperLipBottom1" cx="628.9" cy="256.8" rx="1.6" ry="0.8"/>
	<ellipse id="leftLowerLipTop0" cx="628.9" cy="259.7" rx="1.6" ry="0.8"/>
	<ellipse id="leftLowerLipBottom1" cx="629.3" cy="266.4" rx="1.6" ry="0.8"/>
	<ellipse id="leftLowerLipBottom0" cx="643.1" cy="263.6" rx="1.6" ry="0.8"/>
	<ellipse id="leftEye4" cx="657.4" cy="218.6" rx="1.6" ry="0.8"/>
	<ellipse id="leftJaw7" cx="650.4" cy="289.9" rx="1.6" ry="0.8"/>
	<ellipse id="leftJaw6" cx="670.4" cy="283.2" rx="1.6" ry="0.8"/>
	<ellipse id="leftJaw5" cx="693.6" cy="270.6" rx="1.6" ry="0.8"/>
	<ellipse id="leftJaw4" cx="707.1" cy="250.6" rx="1.6" ry="0.8"/>
	<ellipse id="leftJaw3" cx="708.7" cy="229" rx="1.6" ry="0.8"/>
	<ellipse id="leftJaw2" cx="708.7" cy="219.4" rx="1.6" ry="0.8"/>
	<ellipse id="leftJaw1" cx="707.1" cy="207.7" rx="1.6" ry="0.8"/>
	<ellipse id="leftJaw0" cx="702.2" cy="198.5" rx="1.6" ry="0.8"/>
	<ellipse id="rightTop0" cx="581.6" cy="174.5" rx="1.6" ry="0.8"/>
	<ellipse id="rightTop1" cx="556.4" cy="184" rx="1.6" ry="0.8"/>
	<circle id="leftShoulder" cx="769.3" cy="319.2" r="8.2"/>
</g>
</svg>
