<?xml version="1.0" encoding="utf-8"?>
<!-- Generator: Adobe Illustrator 24.3.0, SVG Export Plug-In . SVG Version: 6.00 Build 0)  -->
<svg version="1.1" xmlns="http://www.w3.org/2000/svg" xmlns:xlink="http://www.w3.org/1999/xlink" x="0px" y="0px" width="909.8px"
	 height="1302.5px" viewBox="0 0 909.8 1302.5" style="enable-background:new 0 0 909.8 1302.5;" xml:space="preserve">
<style type="text/css">
	.st0{display:none;}
	.st1{display:inline;}
	.st2{fill:#FFFFFF;}
	.st3{fill:#FFFFFF;stroke:#000000;stroke-miterlimit:10;}
	.st4{fill:#CCCCCC;stroke:#000000;stroke-miterlimit:10;}
	.st5{display:inline;fill:none;stroke:#000000;stroke-miterlimit:10;}
</style>
<g id="Layer_1" class="st0">
	<g class="st1">
		<defs>
			<rect id="SVGID_1_" x="-39.6" y="-95.4" width="909.8" height="1302.5"/>
		</defs>
		<clipPath id="SVGID_2_">
			<use xlink:href="#SVGID_1_"  style="overflow:visible;"/>
		</clipPath>
		<g style="clip-path:url(#SVGID_2_);">
			
				<image style="overflow:visible;" width="1668" height="2388" xlink:href="3C4CF83DAE5578E2.jpg"  transform="matrix(0.5455 0 0 0.5455 -39.6278 -95.4417)">
			</image>
		</g>
	</g>
</g>
<g id="Layer_1_1_">
	<g id="illustration">
		<path d="M580.1,433.3c9,1.3,15.3,9.6,14,18.7c-1.3,9-9.6,15.3-18.7,14"/>
		<path d="M244.1,433.2c9.1,0,16.5,7.4,16.5,16.5c0,9.1-7.4,16.5-16.5,16.5c-9.1,0-16.5-7.4-16.5-16.5
			C227.6,440.6,235,433.2,244.1,433.2z"/>
		<path class="st2" d="M475.9,545.1c0,0,8.9,13.3,15,9.1l1.4,6.1c0,0-5,2.7-7.5,0l-11-7.9l-3.4-8.9L475.9,545.1z"/>
		<path d="M475.9,545.1l-0.4,0.3c0,0,1.7,2.5,4.1,5c1.2,1.3,2.6,2.5,4.1,3.5c1.5,1,3.1,1.6,4.6,1.6c1,0,2-0.3,2.9-0.9l-0.3-0.4
			l-0.5,0.1l1.4,6.1l0.5-0.1l-0.2-0.4l-0.1,0c-0.4,0.2-2.3,1.1-4.1,1.1c-1,0-2-0.3-2.7-1l0,0l-10.9-7.9l-3-7.8l4.5,1.4L475.9,545.1
			l-0.4,0.3L475.9,545.1l0.1-0.5l-6.5-1.9l3.8,10l11.1,8l0.3-0.4l-0.4,0.3c1,1,2.2,1.4,3.4,1.4c2.4,0,4.7-1.3,4.7-1.3l0.3-0.2
			l-1.6-7.2l-0.6,0.4c-0.8,0.5-1.5,0.7-2.3,0.7c-1.3,0-2.7-0.6-4.1-1.5c-2.1-1.4-4.1-3.4-5.5-5.2c-0.7-0.9-1.3-1.6-1.7-2.2
			c-0.2-0.3-0.4-0.5-0.5-0.7c-0.1-0.2-0.2-0.2-0.2-0.2l-0.1-0.1l-0.2-0.1L475.9,545.1z"/>
		<path class="st2" d="M375.8,419.5l-3.6,0c-35.1-1-90.2,4.6-133.2,13.6c1.7,8.8,4.8,21.9,5.3,33.1c32,0.5,78.3-4.9,113.4-13.4
			l-0.8,1.3c-16.3,26.8-17.1,66.8-15.6,91c4,20.9,23.6,36.7,23.6,36.7c-2,4.4-3.7,9.4-5,14.9c-2.6,10.7-3.2,20.8-2,27.7
			c0.9,5.2,3.8,5.9,6.7,6.6c2.6,0.7,6.1-0.2,9-3.5c4.7-5.4,7.8-13.2,10.7-24.9c0.7-2.9,1.2-5.8,1.7-8.5c7.4,2.7,15.7,4.2,24.3,4.2
			c8.7,0,16.9-1.5,24.4-4.2c0.4,2.7,1,5.6,1.7,8.6c2.9,11.6,5.9,19.5,10.7,24.9c2.9,3.3,6.4,4.1,9,3.5c2.9-0.7,5.8-1.4,6.7-6.6
			c1.2-6.9,0.7-16.9-2-27.7c-1.4-5.6-3.1-10.7-5.1-15.1c0,0,18.8-19.5,19-33.7c3.1-33.4,1.9-67.7-11.2-91.5l1.2-2
			c34.8,7.6,80.1,12.1,111.6,11.7c0.5-11.2,3.6-24.4,5.3-33.1c-33.7-7.1-74.7-11.5-107.7-12.3l-19-0.3c0,0-27.1-3.4-30.5-37.1h-17.5
			C406.7,383.5,395.6,419.6,375.8,419.5z"/>
		<path d="M375.8,419.5l0-0.5l-3.6,0l0,0.5l0-0.5c-2.6-0.1-5.4-0.1-8.2-0.1c-35.1,0-85.3,5.4-125.1,13.8l-0.5,0.1l0.1,0.5
			c1.7,8.8,4.8,21.9,5.3,33l0,0.5l0.5,0c1.3,0,2.7,0,4.1,0c31.8,0,75.7-5.3,109.4-13.5l-0.1-0.5l-0.4-0.3l-0.8,1.3l0.4,0.3l-0.4-0.3
			c-13,21.5-16.2,51.2-16.2,74.6c0,6.1,0.2,11.7,0.5,16.7l0,0l0,0c2,10.6,8,19.8,13.4,26.4c5.4,6.6,10.4,10.6,10.4,10.6l0.3-0.4
			l-0.5-0.2c-2,4.4-3.7,9.5-5.1,15l0,0c-1.8,7.2-2.6,14.1-2.6,20c0,2.9,0.2,5.6,0.6,8c0.5,2.7,1.5,4.3,2.8,5.3
			c1.3,1,2.8,1.3,4.3,1.7c0.6,0.1,1.2,0.2,1.8,0.2c2.5,0,5.3-1.1,7.7-3.8c4.8-5.5,7.9-13.4,10.8-25.1l0,0c0.7-2.9,1.2-5.8,1.7-8.5
			l-0.5-0.1l-0.2,0.5c7.5,2.7,15.8,4.2,24.4,4.2c8.7,0,17-1.5,24.5-4.2l-0.2-0.5l-0.5,0.1c0.4,2.7,1,5.6,1.7,8.6
			c2.9,11.7,6,19.6,10.8,25.1c2.4,2.7,5.2,3.8,7.7,3.8c0.6,0,1.3-0.1,1.8-0.2c1.4-0.4,3-0.7,4.3-1.7c1.3-1,2.3-2.6,2.8-5.3
			c0.4-2.3,0.6-5,0.6-8c0-5.9-0.8-12.7-2.6-20v0c-1.4-5.6-3.2-10.8-5.1-15.2l-0.5,0.2l0.4,0.3c0,0,4.7-4.9,9.5-11.6
			c4.7-6.7,9.6-15.1,9.7-22.4l-0.5,0l0.5,0c0.9-9.6,1.4-19.4,1.4-28.9c0-23.5-3.3-45.8-12.7-62.9l-0.4,0.2l0.4,0.3l1.2-2l-0.4-0.3
			l-0.1,0.5c33.3,7.3,76.2,11.7,107.4,11.7c1.5,0,2.9,0,4.3,0l0.5,0l0-0.5c0.5-11.2,3.5-24.3,5.3-33l0.1-0.5l-0.5-0.1
			c-33.8-7.1-74.8-11.5-107.8-12.3h0l-19-0.3l0,0.5l0.1-0.5l-0.1,0c-0.7-0.1-7.5-1.2-14.4-6.3c-6.9-5.1-14-14.2-15.6-30.4l0-0.5
			h-18.3l-0.1,0.4c0,0,0,0.1-0.1,0.4c-0.6,2-3.7,10.8-8.9,19.2c-2.6,4.2-5.7,8.2-9.3,11.2c-3.6,3-7.6,4.9-12.1,4.9h-0.1V419.5l0-0.5
			L375.8,419.5v0.5h0.1c5.1,0,9.6-2.3,13.5-5.8c5.8-5.1,10.2-12.8,13.3-19.2c3-6.4,4.6-11.5,4.6-11.5l-0.5-0.1v0.5h17.5v-0.5l-0.5,0
			c1.7,17,9.4,26.4,16.7,31.6c7.3,5.1,14.2,6,14.2,6l0,0l19.1,0.3h0c33,0.8,74,5.2,107.7,12.3l0.1-0.5l-0.5-0.1
			c-1.7,8.7-4.8,21.9-5.3,33.2l0.5,0l0-0.5c-1.4,0-2.8,0-4.3,0c-31.2,0-74-4.4-107.2-11.7l-0.4-0.1l-1.5,2.5l0.1,0.2
			c9.3,16.8,12.6,38.9,12.6,62.4c0,9.5-0.5,19.2-1.4,28.8l0,0v0c-0.1,6.9-4.8,15.3-9.5,21.9c-2.4,3.3-4.7,6.2-6.5,8.2
			c-0.9,1-1.6,1.8-2.1,2.4c-0.3,0.3-0.5,0.5-0.6,0.6c-0.1,0.1-0.2,0.2-0.2,0.2l-0.2,0.2l0.1,0.3c2,4.3,3.7,9.4,5.1,15v0
			c1.8,7.2,2.6,14,2.6,19.8c0,2.9-0.2,5.5-0.6,7.8c-0.4,2.5-1.3,3.8-2.4,4.7c-1.1,0.8-2.5,1.2-3.9,1.5c-0.5,0.1-1,0.2-1.6,0.2
			c-2.1,0-4.7-1-6.9-3.5c-4.6-5.3-7.7-13-10.5-24.6c-0.7-3-1.3-5.8-1.7-8.5l-0.1-0.6l-0.6,0.2c-7.4,2.7-15.6,4.2-24.2,4.2
			c-8.5,0-16.7-1.5-24.1-4.2l-0.6-0.2l-0.1,0.6c-0.5,2.7-1,5.6-1.7,8.5l0,0c-2.9,11.6-5.9,19.4-10.5,24.6c-2.2,2.5-4.8,3.5-6.9,3.5
			c-0.6,0-1.1-0.1-1.6-0.2c-1.5-0.4-2.8-0.7-3.9-1.5c-1.1-0.8-2-2.1-2.4-4.7c-0.4-2.3-0.6-4.9-0.6-7.8c0-5.8,0.8-12.6,2.6-19.7l0,0
			c1.3-5.5,3-10.5,5-14.9l0.2-0.4l-0.3-0.2c0,0-0.1-0.1-0.2-0.2c-1.1-0.9-6-5.1-11-11.5c-5.1-6.4-10.3-15-12.2-24.7l-0.5,0.1l0.5,0
			c-0.3-5-0.5-10.6-0.5-16.6c0-23.4,3.2-52.9,16.1-74.1l0,0l1.4-2.3l-1.1,0.3c-33.6,8.2-77.5,13.5-109.2,13.5c-1.4,0-2.7,0-4.1,0
			l0,0.5l0.5,0c-0.5-11.3-3.6-24.4-5.3-33.2l-0.5,0.1l0.1,0.5c39.8-8.4,89.9-13.7,124.9-13.7c2.8,0,5.6,0,8.2,0.1l3.6,0h0V419.5z"/>
		<path d="M501.4,543.4c0,0-5.6,1.3-6.7,3.5c-1.1,2.2-2,1.7-3.3,4.5c-1.4,2.8,0,8.9,0,8.9s2.8,2.9,7.8,2.9c3.6,0,13.4,2,9.2-1.6
			c-4.2-3.7-3.3-1.2-3.3-1.2l2.8-3l-4.7-1.4l4.2-3.4c0,0-5.6,1.9-5.6,0s3.3-3.8,3.3-3.8v-2.5l-5,0.8L501.4,543.4z"/>
		<path d="M348,419.3c0,0,7,21.1,3.6,24.1c-3.3,3-3.6,1.4-3.6,1.4s1.2-4.8,1.2-7.4c0-2.6-9.5-18-9.5-18H348z"/>
		<path d="M326,421c0,0,8.7,21.2,3.7,26L326,450c0,0,5.1-25-10.2-28.2L326,421z"/>
		<path d="M300.5,423.4c0,0,13.2,13.6,3,27.5l-4.8,3.9c0,0,6.6-27.7-8.7-30L300.5,423.4z"/>
		<path d="M270.4,427.4c0,0,13.8,14.8,5.9,25.2l-5.9,5.6c0,0,4.5-29-9.3-29.1L270.4,427.4z"/>
		<path d="M249.6,431c0,0,11.3,10.1,5.2,25l-3.9,4.8c0,0,5.5-13.9-8.1-28.5L249.6,431z"/>
		<path d="M473.7,420.9c0,0-10.7,18.2-5.1,24.4l7.5,8.3c0,0-13.7-12.1,8.6-32.3L473.7,420.9z"/>
		<path d="M499.3,422.1c0,0-21.1,21.4-10.6,30l7,2.6c0,0-6.4-9.6-4.5-13.2c2-3.6,18.1-18,20.7-18.1
			C514.4,423.3,499.3,422.1,499.3,422.1z"/>
		<path d="M523.5,424.2c0,0-17.5,25.9-17.5,27c0,1.1,0,1.1,0,1.1l4.7,5.9c0,0,10,4.2,6.7,0c-3.3-4.2-5.3-11.3-5.3-11.3
			s13.1-19,20.1-17.8l1.9-3.7L523.5,424.2z"/>
		<path d="M547.1,427.2c0,0-15.8,23.4-11,27.5c4.7,4.1,9.2,7.6,9.2,7.6s-4.7-16-2.2-17c2.5-1,17.9-16.8,19.3-15.9s-1.4-0.1-1.4-0.1
			L547.1,427.2z"/>
		<path d="M348,474.3c0,0,14.8,20.7,29.9,17.4l-35.3,7.8L348,474.3z"/>
		<path d="M341,520.7c0,0,31.4,2.8,36.9-3.9l-36.5,28.3L341,520.7z"/>
		<path d="M348,561.9c0,0,27.1-6,29.9-14.9c0,0-11.7,27-14.9,28.5c-3.3,1.4-3.3,1.4-3.3,1.4L348,561.9z"/>
		<path d="M469.9,472c0,0-14.1,14.7-24,11.4l-11.8,0.5c0,0,34.5,17.4,39.7,10.1C473.8,493.9,472.1,478.2,469.9,472z"/>
		<path d="M475.9,514.6c0,0-21.1,0.6-30-4.5c0,0,15.4,30.1,27.9,27.9C473.8,538,477.1,540.1,475.9,514.6z"/>
		<path d="M473.8,552.4c0,0-19.6,10-29.4-8.9c0,0,12.4,37.4,15.6,33.4S474.7,561.1,473.8,552.4z"/>
		<path d="M361.1,592.2c9.5,0.7,11.3,4.8,11.3,4.8l-13.1,1.9L361.1,592.2z"/>
		<path d="M357.4,613c0,0,13.9,0,9.3,0c-2.2,0-9.4,4.8-9.4,4.8L357.4,613z"/>
		<path d="M459.7,592.2c-9.5,0.7-11.3,4.8-11.3,4.8l13.1,1.9L459.7,592.2z"/>
		<path d="M463.4,613c0,0-13.9,0-9.3,0c2.2,0,9.4,4.8,9.4,4.8L463.4,613z"/>
		<path d="M357.9,621.3c-1.5,5.8,2.2,9,5.1,10c4.8,1.7,9.6,0.5,11-5.4"/>
		<path d="M462.5,621.4c1.5,7.2-2.2,11.1-5,12.4c-4.8,2.1-9.5,0.6-11-6.6"/>
		<path d="M395.7,406.2c0,0,4,3.6,6.6,2.3l-11.5,3.6L395.7,406.2z"/>
		<polygon points="431.3,404.9 422.5,408 435.6,410.3 		"/>
		<ellipse class="st3" cx="412.5" cy="318.1" rx="57.9" ry="75.5"/>
		<path class="st4" d="M384.4,375.9c0,0-0.7,23.4,23.8,26.4h14.9c0,0,21.6-0.4,20.1-26.4v-13.6c1.5-26-20.1-26.4-20.1-26.4h-14.9
			c-24.6,3-23.8,26.4-23.8,26.4V375.9z"/>
		<ellipse transform="matrix(0.9155 -0.4022 0.4022 0.9155 -110.3958 191.1499)" cx="400" cy="358.5" rx="4.7" ry="8.5"/>
		<ellipse transform="matrix(0.4022 -0.9155 0.9155 0.4022 -71.6225 605.2131)" cx="427.7" cy="357.5" rx="8.5" ry="4.7"/>
		<path d="M397.4,380c0,0,18,15.6,36.7,0C434.1,380,413.6,383.3,397.4,380z"/>
		<path d="M369.5,326.2c0,0,0.6-15.3,11.2-16c0,0,11.2,0,13,18.2C393.7,328.5,379.2,313.6,369.5,326.2z"/>
		<path d="M454.7,326.2c0,0-0.6-15.3-11.2-16c0,0-11.2,0-13,18.2C430.5,328.5,445,313.6,454.7,326.2z"/>
		<path class="st3" d="M372.5,260c0,0-15.3-14.7-16.7-19.7c0,0-12.3-14.7-15.6-14.3c0,0-4.7,49.7,16.2,69.6l17.4-33.6L372.5,260z"/>
		<path d="M360.5,285c0,0-14.6-26.1-12.1-42.5l6.3,12.8l14.3,15.9L360.5,285z"/>
		<path d="M395,244.6c0,0-0.9-14,0-14s2.8,4.3,3.2,3.5s0,0.4,2-2.2s2.2-4.7,2.2-4.7v5.2c0,0,4.7-0.9,4.7-3.5s0-5.2,0-3.9
			s3.2,3.7,3.5,5c0.4,1.3,1,2.8,3.2,0.7c2.2-2,2.9-2.2,3.1-3.7c0.2-1.5,0,5,0,5s0.9,1.3,3.3-0.7s1.9-6.7,1.9-6.7s0.6,5.9,1.3,6.7
			c0.7,0.7,3.3,3.3,4.3,1.5c0.9-1.9,1.1-4.7,1.5-5.4c0.4-0.7,0.5-1.9,1.3-1.5c0.8,0.4,1.3,8,1.3,8.7c0,0.6,1.3-0.7,2.8-2.2
			c1.5-1.5,1.5-2.6,1.5-2.6s-1.1,4.5-0.9,4.8c0.2,0.3,2,1,0.9,3.4c-1.1,2.4-0.8,8.6-1.4,10.2c-0.6,1.7-2.8,9.5-3.2,10.8
			c-0.4,1.3-1.1,4.6-1.7,4.7c-0.6,0.1-1.7-0.1-2.6,0c-0.9,0.1,0.4-1.4-2-2.3c-2.4-0.9-4.8-1.5-5.4,0.6s-1.5,1.7-1.5,1.7
			s-3.6-2.5-4.4-3c-0.8-0.6-2.1,3-2.1,3s-4.5-1.4-4.8-1.9c-0.4-0.6,2.8-1.5-0.4-0.6c-3.2,0.9-3.2,0.9-3.2,0.9s-3.7,3.3-3.5,1.6
			C400,262,395,244.6,395,244.6z"/>
		<path class="st3" d="M445.9,256.4c0,0,12.4,5.9,30.4-19.4c0,0,6-4.3,20.3,2c0,0,4.3,0.9,5-0.4c0,0-7.6,8.9-12.1,14.3
			c0,0-15.4,28.5-14.7,29.8c0,0-5.6,14.7-6.6,14.9c-0.8,0.2-4.6-17.1-14.5-31.7C451.5,262.4,448.9,259.2,445.9,256.4z"/>
		<path d="M481.1,247c0,0-10.4,12.7-12.5,12.5c-2-0.2-14.9,6.4-14.9,6.4l10.8,19.2c0,0,5.5-18.5,5.8-18.5c0.3,0,9.7-14.9,9.7-14.9
			L481.1,247z"/>
		<path d="M402.4,279.3c0,0-20.8-23.2-28.7-17.4l-9.3,14v2.5c0,0,13.9-8.3,17.1-6.6S396,273.2,402.4,279.3z"/>
		<path d="M391,297.6c0,0-12.7-12.4-34.7-2c0,0-1.7,19.2-1.7,19.3s1.5-11.4,8.2-11.7S371.5,294.8,391,297.6z"/>
		<path d="M431.8,277.4c0,0,6.4-15.3,16.7-18.4c0,0,8.9,11.7,9.5,13.1c0.6,1.4-12.6-1.7-15.4,0C439.8,273.8,436.2,274.3,431.8,277.4
			z"/>
		<path d="M436.5,286.6c0,0,9.8-11.7,25.7-2.8c0,0,5.5,10.8,6.1,13.7l1.7,11.1C469.9,308.6,456.8,278.5,436.5,286.6z"/>
	</g>
	<g id="skeleton_1_" class="st0">
		<circle id="rightShoulder" class="st1" cx="354.6" cy="434" r="8.2"/>
		<circle id="rightElbow" class="st1" cx="289.9" cy="442.8" r="8.2"/>
		<circle id="rightWrist" class="st1" cx="241.6" cy="447.2" r="8.2"/>
		<circle id="rightHip" class="st1" cx="371" cy="617.6" r="8.2"/>
		<circle id="rightKnee" class="st1" cx="357.9" cy="801" r="8.2"/>
		<circle id="rightAnkle" class="st1" cx="357.9" cy="1009" r="8.2"/>
		<circle id="leftShoulder" class="st1" cx="463.6" cy="435.7" r="8.2"/>
		<circle id="leftElbow" class="st1" cx="520.9" cy="442.4" r="8.2"/>
		<circle id="leftWrist" class="st1" cx="579" cy="448.3" r="8.2"/>
		<circle id="leftHip" class="st1" cx="456.7" cy="617.9" r="8.2"/>
		<circle id="leftKnee" class="st1" cx="467.9" cy="801" r="8.2"/>
		<circle id="leftAnkle" class="st1" cx="467.9" cy="1009" r="8.2"/>
		<polygon class="st5" points="354.6,433.9 371.6,616.8 456.2,619.1 463.6,434 		"/>
		<polyline class="st5" points="354.6,433.9 293.3,442.2 241.6,445.9 		"/>
		<polyline class="st5" points="463.6,434 522.1,442.2 578.4,448.5 		"/>
		<polyline class="st5" points="371.6,616.8 357.8,801.3 357.8,1009.3 		"/>
		<polyline class="st5" points="456.2,619.1 464.7,752.4 467.8,1009.3 		"/>
		<circle id="rightEye0" class="st1" cx="385" cy="337.9" r="0.8"/>
		<circle id="rightBrow1" class="st1" cx="382.8" cy="326" r="0.8"/>
		<circle id="rightBrow4" class="st1" cx="406.1" cy="329" r="0.8"/>
		<circle id="nose1" class="st1" cx="414" cy="338.9" r="0.8"/>
		<circle id="rightBrow3" class="st1" cx="396.3" cy="325" r="0.8"/>
		<circle id="rightEye1" class="st1" cx="390.2" cy="334.2" r="0.8"/>
		<circle id="rightBrow0" class="st1" cx="378.8" cy="329.7" r="0.8"/>
		<circle id="rightBrow2" class="st1" cx="389" cy="325" r="0.8"/>
		<circle id="rightEye5" class="st1" cx="390.2" cy="340.2" r="0.8"/>
		<circle id="rightEye2" class="st1" cx="396.5" cy="334.2" r="0.8"/>
		<circle id="rightEye3" class="st1" cx="401.7" cy="338.4" r="0.8"/>
		<circle id="nose0" class="st1" cx="414" cy="333.1" r="0.8"/>
		<circle id="nose3" class="st1" cx="414" cy="351.5" r="0.8"/>
		<circle id="rightNose0" class="st1" cx="403.3" cy="356" r="0.8"/>
		<circle id="rightMouthCorner" class="st1" cx="397.3" cy="378.1" r="0.8"/>
		<circle id="rightNose1" class="st1" cx="408.5" cy="356" r="0.8"/>
		<circle id="rightUpperLipTop0" class="st1" cx="404.2" cy="374.7" r="0.8"/>
		<circle id="nose2" class="st1" cx="414" cy="344.4" r="0.8"/>
		<circle id="nose4" class="st1" cx="414" cy="356.8" r="0.8"/>
		<circle id="upperLipTopMid" class="st1" cx="414.8" cy="374.5" r="0.8"/>
		<circle id="rightUpperLipTop1" class="st1" cx="410.7" cy="373.6" r="0.8"/>
		<path id="rightMiddleLip" class="st1" d="M400.9,377.6c0.4,0,0.8,0.4,0.8,0.8s-0.4,0.8-0.8,0.8s-0.8-0.4-0.8-0.8
			C400.1,378,400.5,377.6,400.9,377.6z"/>
		<circle id="lowerLipBottomMid" class="st1" cx="414.8" cy="387.7" r="0.8"/>
		<circle id="upperLipBottomMid" class="st1" cx="414.8" cy="378.1" r="0.8"/>
		<circle id="lowerLipTopMid" class="st1" cx="414.8" cy="381.2" r="0.8"/>
		<circle id="rightUpperLipBottom1" class="st1" cx="410.9" cy="377.6" r="0.8"/>
		<circle id="rightLowerLipTop0" class="st1" cx="410.9" cy="380.5" r="0.8"/>
		<circle id="rightLowerLipBottom1" class="st1" cx="410.7" cy="387.2" r="0.8"/>
		<circle id="rightLowerLipBottom0" class="st1" cx="403.7" cy="384.4" r="0.8"/>
		<circle id="rightEye4" class="st1" cx="396.5" cy="339.4" r="0.8"/>
		<circle id="jawMid" class="st1" cx="414.8" cy="413.5" r="0.8"/>
		<circle id="rightJaw7" class="st1" cx="399.8" cy="410.3" r="0.8"/>
		<circle id="rightJaw6" class="st1" cx="389.8" cy="403.6" r="0.8"/>
		<circle id="rightJaw5" class="st1" cx="378.2" cy="391.1" r="0.8"/>
		<circle id="rightJaw4" class="st1" cx="371.4" cy="371.1" r="0.8"/>
		<circle id="rightJaw3" class="st1" cx="370.6" cy="349.4" r="0.8"/>
		<circle id="rightJaw2" class="st1" cx="370.6" cy="339.9" r="0.8"/>
		<circle id="rightJaw1" class="st1" cx="371.4" cy="328.2" r="0.8"/>
		<circle id="rightJaw0" class="st1" cx="373.9" cy="318.9" r="0.8"/>
		<circle id="topMid" class="st1" cx="415" cy="292.8" r="0.8"/>
		<circle id="leftTop0" class="st1" cx="434.7" cy="295.3" r="0.8"/>
		<circle id="leftTop1" class="st1" cx="447.3" cy="304.8" r="0.8"/>
		<circle id="leftEye0" class="st1" cx="444.6" cy="337.9" r="0.8"/>
		<circle id="leftBrow1" class="st1" cx="446.5" cy="326.4" r="0.8"/>
		<circle id="leftBrow4" class="st1" cx="422.9" cy="328.5" r="0.8"/>
		<circle id="leftBrow3" class="st1" cx="432.9" cy="325.3" r="0.8"/>
		<circle id="leftEye1" class="st1" cx="439.4" cy="334.2" r="0.8"/>
		<circle id="leftBrow0" class="st1" cx="450.5" cy="329.3" r="0.8"/>
		<circle id="leftBrow2" class="st1" cx="440.2" cy="324.9" r="0.8"/>
		<circle id="leftEye5" class="st1" cx="439.4" cy="340.2" r="0.8"/>
		<circle id="leftEye2" class="st1" cx="433.1" cy="334.2" r="0.8"/>
		<circle id="leftEye3" class="st1" cx="427.9" cy="338.4" r="0.8"/>
		<circle id="leftNose0" class="st1" cx="424.4" cy="356" r="0.8"/>
		<circle id="leftMouthCorner" class="st1" cx="432.3" cy="378.1" r="0.8"/>
		<circle id="leftNose1" class="st1" cx="419.6" cy="356" r="0.8"/>
		<circle id="leftUpperLipTop0" class="st1" cx="425.4" cy="374.7" r="0.8"/>
		<circle id="leftUpperLipTop1" class="st1" cx="419" cy="373.6" r="0.8"/>
		<path id="leftMiddleLip" class="st1" d="M428.7,377.6c0.4,0,0.8,0.4,0.8,0.8s-0.4,0.8-0.8,0.8s-0.8-0.4-0.8-0.8
			C427.9,378,428.3,377.6,428.7,377.6z"/>
		<circle id="leftUpperLipBottom1" class="st1" cx="418.8" cy="377.6" r="0.8"/>
		<circle id="leftLowerLipTop0" class="st1" cx="418.8" cy="380.5" r="0.8"/>
		<circle id="leftLowerLipBottom1" class="st1" cx="419" cy="387.2" r="0.8"/>
		<circle id="leftLowerLipBottom0" class="st1" cx="425.9" cy="384.4" r="0.8"/>
		<circle id="leftEye4" class="st1" cx="433.1" cy="339.4" r="0.8"/>
		<circle id="leftJaw7" class="st1" cx="429.6" cy="410.7" r="0.8"/>
		<circle id="leftJaw6" class="st1" cx="439.6" cy="404" r="0.8"/>
		<circle id="leftJaw5" class="st1" cx="451.2" cy="391.4" r="0.8"/>
		<circle id="leftJaw4" class="st1" cx="458" cy="371.4" r="0.8"/>
		<circle id="leftJaw3" class="st1" cx="458.8" cy="349.8" r="0.8"/>
		<circle id="leftJaw2" class="st1" cx="458.8" cy="340.2" r="0.8"/>
		<circle id="leftJaw1" class="st1" cx="458" cy="328.5" r="0.8"/>
		<circle id="leftJaw0" class="st1" cx="455.5" cy="319.3" r="0.8"/>
		<polyline class="st5" points="414.8,292.8 395,295.3 382.5,304.8 373.9,318.9 371.4,328.2 370.6,339.9 370.6,349.4 371.4,371.1 
			378.2,391.1 389.8,403.6 399.8,410.3 414.8,413.5 429.6,410.7 439.6,404 451.2,391.4 458,371.4 458.8,349.8 458.8,340.2 
			458,328.5 455.5,319.3 447.3,304.8 434.7,295.3 414.8,292.8 		"/>
		<polyline class="st5" points="378.8,329.7 382.8,326 389,325 396.3,325 406.1,329 		"/>
		<polygon class="st5" points="385,337.9 390.2,334.2 396.5,334.2 401.7,338.4 396.5,339.4 390.2,340.2 		"/>
		<polyline class="st5" points="403.3,356 408.5,356 414,356.8 414,351.5 414,344.4 414,338.9 414,333.1 		"/>
		<polyline class="st5" points="450.3,329.3 446.3,326.4 440,324.9 432.7,325.3 422.7,328.5 		"/>
		<polygon class="st5" points="444.4,337.9 439.1,334.2 432.8,334.2 427.7,338.4 432.8,339.4 439.1,340.2 		"/>
		<polyline class="st5" points="424.4,356 419.4,356 414,356.8 		"/>
		<polygon class="st5" points="397.3,378.1 404.2,374.7 410.7,373.6 414.8,374.5 419,373.6 425.4,374.7 432.3,378.1 425.9,384.4 
			418.8,387.2 414.8,387.7 410.7,387.2 403.7,384.4 		"/>
		<polyline class="st5" points="397.3,378.1 400.9,378.4 410.9,377.6 414.8,378.1 418.8,377.6 428.7,378.4 432.3,378.1 		"/>
		<polyline class="st5" points="397.3,378.1 400.9,378.4 410.9,380.5 414.8,381.3 418.8,380.5 428.7,378.4 432.3,378.1 		"/>
		<circle id="rightTop0" class="st1" cx="395.1" cy="295.3" r="0.8"/>
		<circle id="rightTop1" class="st1" cx="382.5" cy="304.8" r="0.8"/>
	</g>
</g>
</svg>
